<?xml version="1.0" encoding="utf-8" ?>
<svg xmlns="http://www.w3.org/2000/svg" xmlns:xlink="http://www.w3.org/1999/xlink" width="1229" height="615">
	<path fill="#BE434F" transform="scale(0.600124 0.600124)" d="M1123.78 705.483L1124.9 705.769C1129.62 710.834 1132.08 724.431 1134.09 731.213C1136.7 732.004 1139.37 732.564 1141.49 734.353C1139.26 738.387 1136.87 741.649 1135.32 746.092C1132.19 755.092 1131.5 768.875 1126.37 776.537C1122.62 772.896 1121.91 754.611 1120.15 748.665C1117.83 740.814 1113.76 737.037 1106.78 733.217C1110.77 732.15 1114.73 731.333 1117.66 728.219C1123.26 722.265 1123.95 713.272 1123.78 705.483Z"/>
	<path fill="#9C425A" transform="scale(0.600124 0.600124)" d="M522.43 634.667C525.801 637.269 530.292 677.24 537.114 687.859C539.311 691.28 542.641 693.922 545.724 696.52L533.413 707.306C531.223 718.225 526.779 764.052 521.123 769.606C515.999 749.007 515.93 727.325 509.363 706.831C505.094 702.922 500.649 699.324 496.111 695.737C501.001 692.455 505.563 689.169 509.955 685.228C514.92 668.673 516.668 650.831 522.43 634.667Z"/>
	<path fill="#9C425A" transform="scale(0.600124 0.600124)" d="M1369.76 107.495L1371.41 108.017C1375.95 114.893 1382.77 159.983 1381.28 168.306C1386.89 170.449 1395.68 173.814 1398.53 179.335C1398.47 179.457 1398.43 179.587 1398.35 179.7C1395.59 183.831 1385.23 186.823 1380.63 188.099C1381.5 190.157 1381.82 192.007 1381.74 194.237C1381.4 203.586 1376.61 253.331 1373.44 258.862C1373.12 259.424 1371.96 260.232 1371.45 260.708C1367.58 255.621 1366.8 203.628 1359.9 189.514C1357.56 185.198 1344.98 179.94 1340.39 178.152C1346.18 176.319 1355.18 172.666 1359.41 168.271C1364.99 157.528 1369.58 120.283 1369.76 107.495Z"/>
	<path fill="#9C425A" transform="scale(0.600124 0.600124)" d="M524.853 105.6C524.981 105.673 525.121 105.727 525.236 105.818C527.797 107.842 535.505 154.205 536.682 160.859C543.431 164.481 550.51 167.628 557.415 170.949C550.323 174.413 543.535 178.001 536.872 182.238C532.213 202.183 528.987 222.375 524.709 242.394L523.066 242.429C518.629 233.875 514.276 194.182 512.393 182.151C506.366 178.028 499.798 174.559 493.462 170.926C500.054 166.94 506.76 163.12 513.406 159.222C516.292 141.971 518.215 121.739 524.853 105.6Z"/>
	<path fill="#9C425A" transform="scale(0.600124 0.600124)" d="M881.457 231.617C884.904 216.489 894.346 148.02 898.223 142.036C898.421 142.313 898.61 142.594 898.815 142.865C899.095 143.237 899.404 143.586 899.703 143.944L899.22 144.665C901.638 155.806 903.808 166.922 905.451 178.208C907.531 192.502 907.98 211.069 913.721 224.322Q914.16 225.326 914.67 226.295Q915.18 227.264 915.759 228.194Q916.337 229.123 916.982 230.009Q917.626 230.894 918.333 231.731Q919.04 232.567 919.806 233.35Q920.571 234.134 921.391 234.859Q922.212 235.585 923.082 236.25Q923.953 236.914 924.869 237.514C928.688 239.97 932.999 241.684 937.186 243.409C930.542 246.321 924.312 249.834 918.562 254.287C912.688 278.987 904.717 320.279 903.65 344.912C900.249 345.042 897.221 344.768 893.868 344.197L894.376 342.981C894.291 342.787 894.202 342.596 894.122 342.4C891.157 335.124 891.054 324.858 889.893 317.035L880.937 255.096Q871.238 248.955 861.469 242.924C868.289 239.364 874.953 235.733 881.457 231.617Z"/>
	<path fill="#9C425A" transform="scale(0.600124 0.600124)" d="M1216.68 718.84C1218.14 720.095 1219.11 720.927 1219.27 723.001C1219.72 728.829 1219.05 735.145 1218.99 741.013C1218.87 752.824 1219 764.649 1219.04 776.462C1219.16 812.456 1220.3 848.909 1218.5 884.836C1218.32 888.413 1218.28 892.062 1216.62 895.319C1225.08 898.116 1240.04 906.128 1245.73 913.134L1245.87 914.741C1238.73 910.988 1225.57 908.583 1215.85 903.344C1193.32 891.202 1176 867.479 1168.89 843.171C1158.5 807.699 1166.84 768.543 1196.05 744.436C1202.04 739.493 1214.1 733.84 1217.79 727.059C1218.09 723.962 1217.55 721.775 1216.68 718.84Z"/>
	<path fill="#9C425A" transform="scale(0.600124 0.600124)" d="M1810.25 755.839C1819.55 762.937 1838.62 759.587 1849.45 758.139C1885.72 753.291 1950.9 729.454 1982.71 736.201C1979.19 742.517 1964.3 747.433 1958.28 753.316C1942.99 768.262 1923.01 800.64 1907.32 810.946L1906.79 811.298C1927.71 816.336 1967.48 845.422 1979.06 864.058C1980.28 866.019 1980.76 867.789 1980.68 870.095C1968.33 861.123 1944.16 863.587 1929.86 865.824Q1923.55 866.812 1917.34 868.284Q1911.13 869.755 1905.06 871.7Q1898.98 873.645 1893.07 876.053Q1887.16 878.461 1881.45 881.317C1851.84 895.853 1820.98 922.765 1786.02 919.127C1771 917.565 1756.44 911.678 1743.48 904.127C1726.57 894.27 1687.35 858.212 1667.79 864.119C1670.36 860.702 1675.48 855.406 1675.46 851.041C1675.39 850.604 1675.35 850.168 1675.19 849.751C1673.35 844.876 1666.19 840.358 1661.81 837.973C1662.7 836.636 1663.16 835.098 1663.38 833.517C1664.91 822.908 1666.36 771.275 1660.8 763.696C1667.11 765.682 1673.87 769.456 1679.45 773.032C1684.8 770.631 1692.02 767.733 1695.77 763.157L1698.24 765.787L1697.74 768.999C1701.78 777.085 1702.03 817.706 1699.28 826.287C1699.03 827.096 1698.7 827.836 1698.33 828.598L1698.07 829.143C1697.81 829.684 1697.86 829.572 1697.52 830.155C1696.83 830.703 1697.01 830.444 1696.62 831.157C1692.78 838.144 1687.57 847.942 1681.07 852.653C1684.36 854.061 1687.48 855.704 1690.57 857.489C1698.09 861.828 1722.85 876.512 1725.18 885.137C1726.33 884.73 1727.46 884.25 1728.47 883.556C1733.94 879.804 1749.26 867.714 1750.47 861.252C1751.44 861.664 1752.4 862.122 1753.28 862.703C1759.18 866.605 1776.75 881.984 1777.94 888.528C1779.42 887.904 1780.89 887.19 1782.2 886.263C1803.18 871.469 1823.68 851.906 1828.72 825.618C1830.31 817.331 1829.94 809.081 1825.11 802.008C1825.38 808.514 1815.24 818.754 1810.66 823.349C1808.91 825.098 1807.74 825.542 1805.35 825.527C1804.94 820.06 1806.88 812.989 1806.94 807.125C1807.07 793.885 1804.83 779.926 1806.42 766.76C1806.82 763.411 1807.62 757.894 1810.25 755.839ZM1829.3 860.499C1817.35 864.447 1801.34 871.177 1795.42 883.144Q1795.15 883.689 1794.93 884.258Q1794.71 884.828 1794.55 885.416Q1794.39 886.005 1794.29 886.606Q1794.19 887.208 1794.15 887.816Q1794.11 888.425 1794.14 889.034Q1794.16 889.643 1794.24 890.247Q1794.33 890.851 1794.47 891.444Q1794.62 892.036 1794.82 892.611C1796.7 897.899 1803.94 905.103 1809.11 907.3C1810.87 908.046 1813.32 908.531 1815.18 908.08C1821.25 906.743 1828.76 903.097 1832.11 897.606C1833.76 894.911 1834.28 891.788 1833.46 888.728C1832.5 885.169 1829.87 882.484 1826.65 880.823C1824.52 879.725 1822.26 878.834 1820.03 877.941C1825.72 873.993 1835.41 868.825 1838.41 862.34L1837.97 860.613C1835.24 859.222 1832.22 860.082 1829.3 860.499Z"/>
	<path fill="#BE434F" transform="scale(0.600124 0.600124)" d="M1154.36 722.845C1154.45 722.663 1154.54 722.484 1154.63 722.298C1160.54 709.214 1149.67 651.545 1159.23 645.215C1174.73 645.781 1189.85 654.693 1207.31 655.777C1251.45 658.516 1295.64 654.061 1339.77 655.024C1343.77 661.213 1342.65 704.457 1341.11 713.402C1347.1 717.373 1350.43 724.193 1352.65 730.881C1357.38 729.163 1367.91 722.81 1370.38 718.496C1370.57 718.169 1370.7 717.662 1370.81 717.327C1379.74 720.902 1393.83 733.722 1397.91 742.51L1397.71 745.029L1401.61 749.063L1403.38 749.063L1404.8 747.051C1406.84 751.414 1410.62 756.34 1411.56 760.966C1414.53 775.442 1414.78 834.603 1409.98 847.094C1408.02 852.177 1403.29 858.92 1398.96 862.266C1407.68 864.546 1419.28 866.465 1426.46 872.007L1426.82 874.086C1414.69 871.562 1397.15 869.527 1385.63 874.776C1383.28 877.287 1384.39 880.635 1381.77 883.142C1382.84 886.837 1382.1 889.667 1380.31 893.02C1372.81 907.072 1349.19 916.218 1334.73 920.374C1303.98 929.21 1275.78 925.029 1245.87 914.741L1245.73 913.134C1240.04 906.128 1225.08 898.116 1216.62 895.319C1218.28 892.062 1218.32 888.413 1218.5 884.836C1220.3 848.909 1219.16 812.456 1219.04 776.462C1219 764.649 1218.87 752.824 1218.99 741.013C1219.05 735.145 1219.72 728.829 1219.27 723.001C1219.11 720.927 1218.14 720.095 1216.68 718.84C1217.52 716.165 1217.03 713.976 1215.8 711.523C1215.17 710.267 1214.28 709.054 1213.37 707.989C1198.04 721.754 1173.79 722.797 1154.36 722.845Z"/>
	<path fill="#F7EFEF" transform="scale(0.600124 0.600124)" d="M1282.12 877.796C1288.06 873.592 1315.19 875.812 1322.66 877.133C1323.97 877.365 1325.27 877.585 1326.51 878.098C1328.12 878.833 1329.05 879.641 1330.27 880.909L1329.51 882.73C1319.01 886.632 1293.42 880.779 1282.12 877.796Z"/>
	<path fill="#040100" transform="scale(0.600124 0.600124)" d="M1165.55 655.367C1175.63 658.222 1184.75 663.301 1195.26 664.725C1210.77 666.828 1227.13 666.21 1242.75 666.051L1299.94 665.347C1308.02 665.229 1321.34 663.318 1329.01 665.339C1332.66 672.495 1333.02 701.252 1330.44 709.013C1330.31 709.411 1330.15 709.802 1329.99 710.189C1327.34 711.122 1325.38 710.378 1322.66 709.903Q1324.9 707.611 1327.09 705.265C1326.75 694.064 1329.08 679.529 1323.98 669.313C1315.25 665.177 1297.56 669.974 1287.72 670.174C1262.62 670.686 1237 670.052 1211.93 668.74C1198.14 668.018 1184.78 663.721 1171.26 662.868C1168.91 670.595 1174.48 680.435 1168.19 687.561C1168.02 687.756 1167.84 687.947 1167.66 688.14C1170.22 681.536 1169.46 663.657 1166.45 657.068C1166.17 656.477 1165.88 655.931 1165.55 655.367Z"/>
	<path fill="#9C425A" transform="scale(0.600124 0.600124)" d="M1282.12 877.796C1281.46 876.89 1281.27 875.81 1281.15 874.704C1279.13 856.916 1280.34 830.848 1280.2 812.149C1280 782.516 1278.24 746.395 1280.78 717.425C1281.09 713.933 1281.08 711.778 1283.35 709.049C1284.47 709.711 1284.62 710.43 1285.21 711.552C1295.27 712.585 1314.09 713.979 1322.17 720.161L1322.37 721.828L1319.9 723.302L1320.11 725.525C1312.3 733.526 1296.74 741.266 1285.84 743.555C1289.87 745.707 1303.81 753.706 1305.05 757.981C1305.11 758.205 1305.16 758.435 1305.21 758.661C1309.53 765.296 1309.1 833.358 1306.85 843.449C1305.66 848.81 1301.32 854.465 1297.29 858.057C1306.8 862.885 1318.96 867.787 1326.3 875.613L1326.51 878.098C1325.27 877.585 1323.97 877.365 1322.66 877.133C1315.19 875.812 1288.06 873.592 1282.12 877.796Z"/>
	<path fill="#F7EFEF" transform="scale(0.600124 0.600124)" d="M1319.9 723.302C1315.46 724.924 1291.76 719.934 1286.54 718.219C1284.17 717.439 1283.11 716.798 1281.98 714.607L1283.26 712.146L1285.21 711.552C1295.27 712.585 1314.09 713.979 1322.17 720.161L1322.37 721.828L1319.9 723.302Z"/>
	<path fill="#9C425A" transform="scale(0.600124 0.600124)" d="M1397.71 745.029L1401.61 749.063L1403.38 749.063L1404.8 747.051C1406.84 751.414 1410.62 756.34 1411.56 760.966C1414.53 775.442 1414.78 834.603 1409.98 847.094C1408.02 852.177 1403.29 858.92 1398.96 862.266C1407.68 864.546 1419.28 866.465 1426.46 872.007L1426.82 874.086C1414.69 871.562 1397.15 869.527 1385.63 874.776C1383.28 877.287 1384.39 880.635 1381.77 883.142C1385.03 867.479 1376.2 868.03 1369.65 856.88C1368.31 854.601 1368.87 852.152 1367.9 849.857C1366.38 846.229 1360.72 844.391 1357.35 842.91C1357.92 842.015 1358.31 841.214 1358.57 840.178C1360.77 831.472 1360.93 790.137 1356.91 783.14C1362.99 786.413 1365.23 791.011 1368.44 796.817C1368.53 796.981 1368.62 797.147 1368.71 797.311L1369.59 797.524C1370.05 797.146 1370.51 796.768 1370.95 796.367C1378.11 789.853 1393.45 768.689 1396.46 759.672C1397.86 755.482 1397.52 749.472 1397.71 745.029Z"/>
	<path fill="#040100" transform="scale(0.600124 0.600124)" d="M1299.59 746.66Q1301 746.238 1302.4 745.758C1310.14 743.117 1334.64 730.496 1338.01 723.627C1341.46 729.585 1338.38 736.684 1343.53 742.191C1344.96 743.716 1346.77 744.637 1348.9 744.53C1355.58 744.197 1366.48 734.763 1370.98 729.898C1374.63 732.19 1377.71 734.974 1380.55 738.223C1384.91 743.224 1387.9 749.366 1387.4 756.144C1386.59 767.247 1375.89 778.299 1367.75 785.155C1369.1 781.953 1368.36 778.585 1367.48 775.363C1365.9 769.633 1362.47 761.382 1356.82 758.458C1354.05 757.026 1352.68 758.058 1349.99 759.007C1351.65 765.869 1352.25 802.841 1348.51 808.159C1348.33 808.418 1348.13 808.659 1347.93 808.908C1350.52 811.346 1351.39 812.768 1351.55 816.401C1351.92 824.648 1347.67 836.468 1352.7 843.641C1354.58 846.316 1358.73 850.043 1359.59 853.043C1355.96 860.897 1344.18 871.813 1336.1 874.995C1333.96 868.822 1321.53 862.035 1315.93 859.059C1313.75 857.289 1310.4 856.532 1308.9 854.066Q1309.76 853.148 1310.59 852.207C1312.59 849.952 1314.26 847.754 1315.03 844.797C1320.16 825.127 1316.32 781.053 1314.9 759.838C1315.44 757.769 1315.81 756.683 1314.62 754.677C1311.83 749.958 1304.48 748.195 1299.59 746.66Z"/>
	<defs>
		<linearGradient id="gradient_0" gradientUnits="userSpaceOnUse" x1="1379.6102" y1="797.81683" x2="1161.4792" y2="774.9635">
			<stop offset="0" stop-color="#070000"/>
			<stop offset="1" stop-color="#0A0609"/>
		</linearGradient>
	</defs>
	<path fill="url(#gradient_0)" transform="scale(0.600124 0.600124)" d="M1167.66 688.14C1167.84 687.947 1168.02 687.756 1168.19 687.561C1174.48 680.435 1168.91 670.595 1171.26 662.868C1184.78 663.721 1198.14 668.018 1211.93 668.74C1237 670.052 1262.62 670.686 1287.72 670.174C1297.56 669.974 1315.25 665.177 1323.98 669.313C1329.08 679.529 1326.75 694.064 1327.09 705.265Q1324.9 707.611 1322.66 709.903C1311.24 705.853 1299.66 702.821 1287.87 700.129L1274.79 699.828C1272.55 701.515 1272.43 701.991 1272.01 704.78C1271.48 708.261 1272.36 711.277 1269.85 714.155C1272.21 719.152 1273.26 872.969 1271.57 878.323C1271.25 879.331 1270.56 880.317 1269.9 881.124L1270.93 883.887C1279.88 884.694 1292.23 886.803 1300.54 890.228C1313.05 891.221 1333.2 894.879 1344.89 889.333C1350.95 886.456 1368.63 870.91 1373.55 875.985C1374.3 881.313 1370.19 887.582 1367.19 891.689C1358.3 903.849 1333.26 911.452 1319.09 913.473Q1317.8 913.657 1316.5 913.766C1316.26 913.906 1316.04 914.068 1315.79 914.186C1313 915.522 1308.48 915.738 1305.35 916.057C1276.81 918.965 1251.43 904.92 1226.45 893.638C1226.75 892.498 1227.05 891.372 1227.27 890.212C1229.18 879.83 1227.96 706.56 1226.63 703.112C1226.29 702.224 1225.28 701.091 1224.72 700.27C1207.3 698.292 1196.84 706.528 1181 711.158C1176.08 712.596 1170.78 712.825 1165.69 713.169C1166.19 712.502 1166.62 711.823 1166.97 711.064C1169.23 706.057 1169.52 693.349 1167.66 688.14Z"/>
	<path fill="#040100" transform="scale(0.600124 0.600124)" d="M1274.79 699.828L1274.08 698.056C1276.23 696.242 1280.11 696.182 1282.82 696.462C1285.39 696.727 1287.12 696.793 1288.97 698.622L1287.87 700.129L1274.79 699.828Z"/>
	<path fill="#040100" transform="scale(0.600124 0.600124)" d="M1270.93 883.887C1279.88 884.694 1292.23 886.803 1300.54 890.228L1301.03 892.454C1299.75 893.022 1299.02 893.244 1297.6 893.157C1289.21 892.641 1276.63 890.483 1270.93 883.887Z"/>
	<path fill="#040100" transform="scale(0.600124 0.600124)" d="M1269.9 881.124C1268.7 877.861 1268.75 874.044 1268.62 870.59C1267.47 840.899 1268.6 810.69 1268.63 780.941C1268.65 760.364 1267.38 739.676 1267.93 719.133C1268.03 715.478 1267.67 704.274 1269.94 701.816L1270.93 703.105C1270.96 706.902 1270.49 710.417 1269.85 714.155C1272.21 719.152 1273.26 872.969 1271.57 878.323C1271.25 879.331 1270.56 880.317 1269.9 881.124Z"/>
	<path fill="#040100" transform="scale(0.600124 0.600124)" d="M1224.72 700.27L1228.03 699.284C1230.31 701.153 1230.97 702.522 1231.3 705.501C1232.75 718.524 1231.11 733.422 1231.1 746.675L1231.25 845.079C1231.31 853.556 1233.49 884.338 1231.05 889.763C1248.96 902.778 1284.24 915.223 1306.05 911.801C1309.28 911.294 1314.43 909.087 1317.17 910.659C1316.97 911.685 1316.85 912.783 1316.5 913.766C1316.26 913.906 1316.04 914.068 1315.79 914.186C1313 915.522 1308.48 915.738 1305.35 916.057C1276.81 918.965 1251.43 904.92 1226.45 893.638C1226.75 892.498 1227.05 891.372 1227.27 890.212C1229.18 879.83 1227.96 706.56 1226.63 703.112C1226.29 702.224 1225.28 701.091 1224.72 700.27Z"/>
	<path fill="#BE434F" transform="scale(0.600124 0.600124)" d="M1419.6 722.738C1419.59 722.419 1419.6 722.1 1419.58 721.781C1419.12 714.55 1402.79 703.223 1413.97 689.315C1418.13 684.14 1425.11 679.706 1431.82 679.16C1438.26 678.636 1444.96 682.066 1449.73 686.16C1453.7 689.571 1456.09 694.073 1456.33 699.322C1456.91 712.146 1448.92 715.302 1447.13 722.133C1446.6 724.177 1449.24 726.695 1450.56 727.946C1452.76 730.038 1456.11 731.839 1456.97 734.856C1463.71 732.264 1495.38 705.293 1498.03 699.258C1498.3 698.646 1498.5 698.033 1498.66 697.385C1503.38 699.971 1527.16 728.688 1528.31 733.916C1528.42 734.405 1528.36 735.147 1528.35 735.604C1534.18 732.914 1562.23 710.553 1564.05 705.322C1564.09 705.189 1564.1 705.047 1564.13 704.909C1579.7 710.34 1598.61 722.146 1612.66 731.045C1620.34 727.12 1636.91 715.397 1639.36 706.78C1639.51 706.254 1639.52 706.07 1639.6 705.575C1644.16 708.387 1654.48 718.643 1656.17 723.758C1656.27 724.083 1656.3 724.55 1656.34 724.869C1661.47 723.032 1673.39 716.671 1676 711.699C1676.08 711.545 1676.12 711.373 1676.19 711.21C1685 714.834 1707.08 733.655 1712.49 741.294C1718.94 738.685 1742.51 713.769 1745.53 707.134C1745.84 706.454 1745.77 706.439 1745.92 705.569L1746.78 706.008C1762.48 714.177 1775 727.535 1791.28 735.25C1800.35 739.55 1810.22 738.71 1818.98 742.373C1818.7 746.432 1814 752.441 1811.02 755.173C1810.77 755.403 1810.5 755.617 1810.25 755.839C1807.62 757.894 1806.82 763.411 1806.42 766.76C1804.83 779.926 1807.07 793.885 1806.94 807.125C1806.88 812.989 1804.94 820.06 1805.35 825.527C1807.74 825.542 1808.91 825.098 1810.66 823.349C1815.24 818.754 1825.38 808.514 1825.11 802.008C1829.94 809.081 1830.31 817.331 1828.72 825.618C1823.68 851.906 1803.18 871.469 1782.2 886.263C1780.89 887.19 1779.42 887.904 1777.94 888.528C1776.75 881.984 1759.18 866.605 1753.28 862.703C1752.4 862.122 1751.44 861.664 1750.47 861.252C1749.26 867.714 1733.94 879.804 1728.47 883.556C1727.46 884.25 1726.33 884.73 1725.18 885.137C1722.85 876.512 1698.09 861.828 1690.57 857.489C1687.48 855.704 1684.36 854.061 1681.07 852.653C1687.57 847.942 1692.78 838.144 1696.62 831.157C1697.01 830.444 1696.83 830.703 1697.52 830.155C1697.86 829.572 1697.81 829.684 1698.07 829.143L1698.33 828.598C1698.7 827.836 1699.03 827.096 1699.28 826.287C1702.03 817.706 1701.78 777.085 1697.74 768.999L1698.24 765.787L1695.77 763.157C1692.02 767.733 1684.8 770.631 1679.45 773.032C1673.87 769.456 1667.11 765.682 1660.8 763.696C1666.36 771.275 1664.91 822.908 1663.38 833.517C1663.16 835.098 1662.7 836.636 1661.81 837.973C1666.19 840.358 1673.35 844.876 1675.19 849.751C1675.35 850.168 1675.39 850.604 1675.46 851.041C1675.48 855.406 1670.36 860.702 1667.79 864.119C1667.98 869.422 1654.43 883.088 1650.66 887.215C1650.02 887.912 1649.34 888.248 1648.5 888.64C1644.4 885.63 1640.33 882.717 1635.98 880.073C1624.42 871.79 1569.94 872.338 1554.05 874.141C1551.17 879.333 1545.41 886.725 1540.8 890.463C1537.3 883.255 1525.26 878.249 1517.85 875.73Q1516.78 875.374 1515.68 875.109C1499.06 869.204 1479.29 869.348 1461.83 869.15C1460.83 873.321 1451.9 882.221 1448.23 884.357C1447.96 884.51 1447.69 884.651 1447.43 884.799C1443.86 879.75 1432.73 875.574 1426.82 874.086L1426.46 872.007C1419.28 866.465 1407.68 864.546 1398.96 862.266C1403.29 858.92 1408.02 852.177 1409.98 847.094C1414.78 834.603 1414.53 775.442 1411.56 760.966C1410.62 756.34 1406.84 751.414 1404.8 747.051C1410.71 742.513 1418.2 732.722 1419.51 725.372C1419.67 724.492 1419.68 723.623 1419.6 722.738Z"/>
	<path fill="#040100" transform="scale(0.600124 0.600124)" d="M1423.94 695.911C1426.62 692.778 1428.94 689.719 1433.42 689.533C1436.65 689.399 1439.52 690.86 1441.77 693.073C1444.41 695.658 1446.36 699.763 1446.39 703.487C1446.41 705.632 1445.59 707.085 1444.37 708.773L1441.23 710.138L1440.55 711.988C1438.13 713.638 1436.14 714.932 1433.04 714.522C1429.46 714.048 1426.68 711.96 1424.69 709.01C1421.77 704.685 1422.94 700.667 1423.94 695.911Z"/>
	<path fill="#9C425A" transform="scale(0.600124 0.600124)" d="M1545 755.498C1545.92 755.293 1546.98 755 1547.92 755.025C1549.24 755.06 1550.28 755.659 1551.17 756.559C1554.09 759.487 1554.25 764.305 1554.17 768.194C1553.94 778.844 1550.53 803.057 1542.64 810.503L1542.02 812.806C1535.58 808.097 1542.96 773.151 1536.95 763.164C1540.28 761.115 1543.92 759.385 1545 755.498Z"/>
	<path fill="#9C425A" transform="scale(0.600124 0.600124)" d="M1462.77 759.473C1468.05 755.734 1473.33 749.58 1480.19 749.62C1482.67 751.018 1483.18 752.793 1483.89 755.474C1487.66 769.651 1493.12 835.919 1486.21 847.281C1483.21 852.22 1478.55 856.87 1473.3 859.361C1480.53 860.273 1511.1 867.554 1515.1 873.055C1515.73 873.931 1515.61 874.103 1515.68 875.109C1499.06 869.204 1479.29 869.348 1461.83 869.15C1465.53 864.539 1473.17 857.182 1472.22 850.764C1471.72 847.441 1468.5 844.779 1465.87 842.96C1465.28 842.55 1464.68 842.174 1464.06 841.813C1465.37 838.554 1464.04 762.42 1463.01 759.986C1462.94 759.812 1462.85 759.644 1462.77 759.473Z"/>
	<path fill="#9C425A" transform="scale(0.600124 0.600124)" d="M1554.05 874.141C1554.91 866.981 1563.19 856.558 1566.93 850.195C1579.25 829.212 1612.34 773.435 1600.71 750.884C1607.22 755.76 1611.25 759.446 1612.43 767.925C1614.52 782.927 1615.36 822.671 1611.76 836.561C1611.03 839.345 1609.36 841.911 1607.6 844.15C1604.48 848.118 1600.13 851.983 1595.39 853.887C1604.32 856.595 1631.37 870.533 1636.2 878.255L1635.98 880.073C1624.42 871.79 1569.94 872.338 1554.05 874.141Z"/>
	<path fill="#040100" transform="scale(0.600124 0.600124)" d="M1424.81 736.085C1424.99 735.94 1425.17 735.798 1425.34 735.648C1430.12 731.571 1430.05 726.67 1431.58 721.093C1432.66 721.415 1433.42 721.474 1434.23 722.294C1437.32 725.441 1439.02 729.296 1441.89 732.557C1446.45 737.738 1454.44 743.095 1457.7 748.943C1458.03 749.54 1458.25 750.06 1458.47 750.705C1458.38 753.809 1457.39 755.209 1455.59 757.558C1456.09 764.947 1459.05 785.668 1454.64 791.337C1454.47 791.555 1454.28 791.752 1454.09 791.959L1454.01 794.049C1458.29 802.777 1458.14 835.055 1455.36 844.478C1457.86 845.994 1462.23 849.27 1462.76 852.312C1462.8 852.546 1462.83 852.782 1462.86 853.017C1462.31 858.96 1453.06 868.011 1448.59 871.738Q1447.77 872.419 1446.92 873.051C1438.28 864.83 1422.29 859.008 1410.62 857.357C1414.45 853.776 1417.71 850.746 1419.06 845.531L1418.58 842.831C1418.84 842.473 1419.1 842.113 1419.34 841.739C1421.33 838.592 1421.42 835.684 1420.7 832.159C1421.12 831.132 1421.41 830.104 1421.44 828.986C1421.82 815.72 1424.48 769.462 1420.88 758.743C1420.15 756.559 1417.2 753.969 1415.63 752.256C1415.68 748.646 1421.12 746.059 1421.67 741.608C1421.69 741.438 1421.7 741.268 1421.72 741.098C1423.48 739.482 1424.2 738.4 1424.81 736.085Z"/>
	<path fill="#040100" transform="scale(0.600124 0.600124)" d="M1609.46 749.185C1615.55 745.38 1637.2 728.452 1638.85 722.202C1638.97 721.749 1638.94 721.486 1638.95 720.996C1645 724.42 1652.04 732.639 1654.01 739.302C1654.48 740.894 1654.55 742.241 1654.27 743.868C1660.29 741.277 1671.22 734.009 1673.94 727.906C1674.21 727.313 1674.15 727.289 1674.26 726.557C1681.32 729.626 1692.99 737.733 1696.03 745.032C1696.31 745.705 1696.26 745.603 1696.41 746.188C1695.82 750.701 1687.91 756.677 1684.35 759.417C1681.68 761.479 1678.27 764.283 1674.77 764.196C1667.26 757.092 1663.23 750.855 1652.91 747.481C1654.46 749.664 1655.22 751.541 1655.56 754.197C1656.6 762.313 1657.18 836.453 1655.97 842.062C1655.82 842.78 1655.44 843.504 1655.08 844.14C1658.99 845.925 1664.69 848.417 1666.45 852.605C1664.6 859.18 1657.03 863.905 1651.84 867.842C1651.72 869.947 1651.46 871.345 1650.44 873.201C1648.26 874.218 1647.76 874.388 1645.34 873.579C1643.72 873.039 1642.16 871.922 1640.72 871.016C1635.46 866.122 1629.07 862.606 1622.82 859.166C1619.15 856.017 1614.61 855.866 1611.71 851.683L1612.66 848.735C1616.65 846.353 1617.8 844.142 1618.91 839.665C1622.95 823.35 1625.46 770.038 1617.2 756.377C1615.43 753.436 1612.4 750.908 1609.46 749.185Z"/>
	<path fill="#040100" transform="scale(0.600124 0.600124)" d="M1497.84 711.917C1498.99 712.622 1500.14 713.442 1501.14 714.351C1507.12 719.781 1518.56 735.68 1518.9 743.933C1523.81 746.055 1526.39 750.649 1528.28 755.474C1531.92 764.743 1533.63 792.281 1529.75 801.067C1535.36 809.048 1528.16 820.306 1534.04 827.759C1535.59 829.718 1536.9 830.219 1539.27 830.33C1540.9 829.572 1542.19 828.677 1543.39 827.338C1554.45 814.945 1562.47 783.649 1561.53 767.06C1561.15 760.537 1559.42 752.938 1554.25 748.487C1548.24 743.326 1545.35 749.231 1539 749.481C1537.59 749.537 1537.63 749.379 1536.61 748.414C1535.63 736.649 1560.77 728.738 1565.8 718.758C1565.87 718.603 1565.94 718.442 1566.01 718.285C1574.31 720.044 1593.51 729.05 1599.17 735.439C1598.95 739.012 1592.98 744.438 1590.56 747.16C1593.2 749.44 1594.23 752.9 1594.52 756.302C1594.76 759.219 1594.63 762.876 1592.58 765.131C1592.23 765.511 1592.05 765.665 1591.69 765.991C1593.35 770.104 1592.73 774.088 1591.81 778.299C1587.83 796.458 1554.74 865.845 1539.45 875.471C1539.36 875.305 1539.29 875.127 1539.18 874.972C1532.49 865.475 1496.73 857.569 1485.64 855.59C1488.71 853.972 1491.23 852.005 1493.29 849.194C1495.25 846.515 1496.57 843.435 1496.99 840.131C1499.22 822.34 1496.3 803.416 1495.37 785.633C1494.91 776.965 1495.48 767.874 1494.06 759.314C1493.39 755.275 1491.72 746.528 1488.25 744.247C1480.92 739.417 1466.03 744.599 1457.86 746.219C1463.43 743.997 1468.16 740.484 1472.91 736.89C1478.94 732.333 1496.76 719.714 1497.84 711.917Z"/>
	<path fill="#040100" transform="scale(0.600124 0.600124)" d="M1695.77 763.157C1709.39 757.796 1725.83 744.916 1735.15 733.642C1740.15 727.59 1744.25 720.85 1750.16 715.609L1751.97 716.023L1753.19 717.978C1757.61 719.73 1763.15 724.08 1765.51 728.288C1765.85 728.897 1765.9 729.44 1765.98 730.118C1771.64 733.186 1782.59 738.781 1784.97 744.92C1789.16 745.709 1794.47 747.11 1797.25 750.592C1797.34 753.255 1790.65 765.333 1790.25 773.933C1789.38 792.586 1789.54 812.369 1790.99 831.025C1791.32 835.321 1793.94 838.977 1793.99 842.908C1794.23 842.986 1794.47 843.067 1794.71 843.142C1798.04 844.178 1800.49 843.718 1803.54 842.09C1808.87 839.243 1817.23 823.911 1820.97 824.283C1822.23 830.535 1815.57 840.304 1812.18 845.388C1804.6 856.781 1790.88 873.199 1778.09 878.598C1775.31 874.121 1761.52 859.711 1757.15 855.385C1758.06 851.894 1757.99 849.206 1757.53 845.642L1756.44 844.413C1748.73 854.35 1737.44 869.12 1725.36 873.56C1724.92 870.476 1722.08 868.318 1719.74 866.544C1715.62 863.416 1711.17 860.757 1706.7 858.163L1703.53 856.077C1701.67 854.239 1698.49 852.778 1696.32 851.097C1693.9 849.217 1698.5 844.304 1697.82 838.92C1698.3 837.971 1698.86 836.953 1699.15 835.931C1699.87 833.381 1698.74 832.222 1697.52 830.155C1697.86 829.572 1697.81 829.684 1698.07 829.143L1698.33 828.598C1698.7 827.836 1699.03 827.096 1699.28 826.287C1702.03 817.706 1701.78 777.085 1697.74 768.999L1698.24 765.787L1695.77 763.157Z"/>
	<path fill="#BE434F" transform="scale(0.600124 0.600124)" d="M1752.82 757.121C1754.82 757.975 1756.49 758.775 1757.64 760.704C1759.08 763.119 1759.56 765.476 1758.89 768.22C1757.8 769.247 1757.62 769.781 1756.03 769.731C1750.53 769.557 1744.82 763.292 1741.26 759.445C1738.33 756.282 1734.84 752.402 1735.45 747.703C1735.76 745.393 1736.67 744.81 1738.43 743.63L1741 744.163C1743.29 746.145 1744.34 748.58 1745.64 751.259C1748.16 753.107 1750.61 754.896 1752.82 757.121Z"/>
	<path fill="#BE434F" transform="scale(0.600124 0.600124)" d="M1752.13 842.078C1751.78 844.418 1751.76 844.412 1749.93 845.923C1749.76 845.897 1749.58 845.877 1749.41 845.847C1744.6 845.02 1741.11 841.84 1738.11 838.199C1719.89 816.082 1741.53 783.259 1728.69 764.587C1735.52 768.531 1738.87 776.929 1745.98 780.052C1749.11 781.431 1752.23 778.302 1755.45 779.489L1755.94 782.011L1755.73 784.364C1750.27 786.289 1740.69 780.244 1739.09 781.752C1739.19 786.949 1740.41 791.866 1740.62 797.006C1740.92 804.836 1740 813.016 1739.59 820.852C1739.47 823.124 1739.1 825.561 1739.62 827.796C1740.08 829.791 1742.34 831.645 1743.79 833.056C1746.75 835.951 1751.87 837.804 1752.13 842.078Z"/>
	<path fill="#9C425A" transform="scale(0.600124 0.600124)" d="M1752.13 842.078C1751.87 837.804 1746.75 835.951 1743.79 833.056C1742.34 831.645 1740.08 829.791 1739.62 827.796C1739.1 825.561 1739.47 823.124 1739.59 820.852C1740 813.016 1740.92 804.836 1740.62 797.006C1740.41 791.866 1739.19 786.949 1739.09 781.752C1740.69 780.244 1750.27 786.289 1755.73 784.364L1755.94 782.011C1758.54 784.236 1758.76 785.131 1759.08 788.514C1759.9 797.315 1760.74 833.888 1755.56 839.711C1754.62 840.756 1753.37 841.47 1752.13 842.078Z"/>
	<path fill="#040100" transform="scale(0.600124 0.600124)" d="M1736.94 310.499C1738.57 310.04 1740.96 309.52 1742.56 310.249C1757.08 316.839 1794.21 371.62 1800.75 386.928C1806.11 399.483 1807.94 413.145 1812.85 425.86C1814.77 430.823 1818.82 440.669 1823.67 442.811C1825.56 441.432 1825.77 440.466 1826.06 438.196C1827.04 430.546 1828.16 388.176 1824.06 382.438C1818.04 380.706 1810.94 380.415 1804.7 379.625C1816.83 372.632 1821.66 359.094 1832.81 350.965C1846 341.348 1885.19 326.917 1893.14 316.692C1893.26 316.874 1893.37 317.059 1893.49 317.236C1894.31 318.461 1895.07 319.618 1895.48 321.057C1897.91 329.672 1898.66 342.515 1894.38 350.396C1901.82 344.786 1905.22 336.312 1912.25 330.733C1919.67 324.852 1933.98 322.006 1938.7 313.709C1939.19 314.093 1939.67 314.498 1940.09 314.966C1945.69 321.254 1949.93 333.766 1953.68 341.469C1961.59 357.752 1969.33 374.077 1978.26 389.837C1981.37 395.331 1990.46 407.45 1990.05 413.117C1989.96 413.426 1989.84 413.911 1989.68 414.218C1987.18 418.93 1927.22 468.418 1920.72 471.041C1920.61 470.562 1920.5 469.893 1920.28 469.422C1917.85 464.242 1907.63 457.688 1902.43 455.485C1910.41 467.497 1897.77 570.96 1907.26 595.663C1911.77 607.409 1926.35 608.564 1930.9 617.08C1930.97 617.213 1931.02 617.351 1931.09 617.487C1929.24 625.101 1888.91 659.833 1880.64 665.327C1875.61 656.62 1816.94 615.34 1806.62 610.764C1808.73 610.14 1810.8 609.125 1812.69 608.007C1818.79 604.414 1824.33 597.369 1825.91 590.438C1826.92 586.025 1826.39 583.34 1824.06 579.503C1824.74 578.765 1825.37 577.94 1825.68 576.971C1827.67 570.821 1827.57 476.775 1826.84 464.987C1826.71 462.894 1826.25 461.185 1825.34 459.303C1822.62 462.013 1816.23 463.555 1812.58 464.903C1782.67 475.952 1749.6 484.403 1717.64 485.231C1717.71 485.387 1717.79 485.544 1717.87 485.698C1723.93 497.203 1715.03 552.438 1719.12 570.246C1720.18 574.839 1722.88 578.867 1726.91 581.36C1732.58 584.871 1740.15 585.085 1746.48 583.574C1754.38 581.689 1762 576.725 1766.11 569.609C1768.47 565.528 1769.52 560.885 1768.14 556.287C1765.66 547.977 1756.81 542.291 1749.57 538.435C1749.65 538.33 1749.72 538.224 1749.81 538.12C1753.22 533.742 1753.81 528.533 1755.69 523.462C1757.53 518.504 1760.81 515.085 1765.58 512.85C1771.39 510.13 1777.74 509.982 1783.72 512.286C1795.19 516.705 1802.99 527.89 1807.86 538.733C1812.65 549.392 1816.85 564.911 1812.36 576.159C1807.06 589.467 1752.15 644.577 1739.3 650.06C1735.2 639.362 1640.65 564.267 1625.92 554.602C1629.85 552.786 1634.69 550.313 1636.3 546.009C1638.66 539.712 1638.66 396.542 1636.41 390.779C1643.88 385.162 1650.57 377.972 1656.98 371.19C1663.46 364.325 1680.62 347.829 1680.36 338.627C1691.4 335.448 1730.05 318.556 1736.94 310.499ZM1710.75 376.496C1716.36 386.827 1719.43 430.084 1720.62 431.935C1720.75 432.137 1722.18 432.593 1722.4 432.66C1724.74 433.375 1730.06 433.309 1732.22 432.099C1733.11 431.605 1733.24 431.359 1733.71 430.501C1736.29 427.621 1736.99 425.911 1736.81 422.025C1736.21 408.502 1726.78 386.644 1716.39 377.787C1714.38 376.07 1713.3 376.445 1710.75 376.496ZM1903 398.498C1906.18 405.765 1906.29 428.406 1903.37 436.148C1903.16 436.712 1902.98 436.972 1902.67 437.525C1906.12 435.723 1910.32 434.057 1912.43 430.632C1915.53 428.785 1917.82 426.741 1918.74 423.093C1920.13 417.549 1917.93 410.665 1914.91 406.034C1912.84 402.88 1910.36 400.191 1906.96 398.494L1903 398.498Z"/>
	<path fill="#BE434F" transform="scale(0.600124 0.600124)" d="M1691.6 350.497C1693.77 351.513 1695.84 353.18 1697.7 354.678C1701.31 357.576 1707.45 362.706 1707.97 367.583C1709.56 371.287 1708.38 376.158 1708.77 380.185C1710.32 396.104 1715.33 413.135 1713.92 429.169C1713.6 432.788 1713 433.784 1710.21 436.051C1703.84 436.112 1697.45 435.936 1691.08 435.876C1697.4 421.477 1689.95 369.958 1691.6 350.497Z"/>
	<path fill="#BE434F" transform="scale(0.600124 0.600124)" d="M1797.46 533.498L1799.47 533.635C1801.47 534.611 1802.51 536.107 1803.46 538.042C1807.61 546.51 1808.93 557.115 1805.78 566.078C1801.12 579.345 1756.43 624.339 1743.35 630.778L1742.17 631.52C1738.42 628.734 1738.18 622.675 1734.65 619.079C1734.78 619.013 1734.92 618.949 1735.06 618.881C1754.65 609.185 1790.18 569.374 1797.22 548.443C1798.86 543.567 1799.87 538.254 1797.46 533.498Z"/>
	<path fill="#461446" transform="scale(0.600124 0.600124)" d="M1927.85 347.498L1930.92 348.098C1936.45 355.593 1957.73 403.256 1957.2 410.516C1957.1 410.812 1956.96 411.312 1956.79 411.607C1953.38 417.446 1933.74 429.203 1927.23 431.058C1926.48 432.04 1925.59 432.691 1924.63 433.461C1923.28 429.173 1933 414.753 1926.26 396.115C1922.53 385.791 1916.38 378.887 1906.44 374.326C1913.42 369.325 1925.24 355.363 1927.85 347.498Z"/>
	<path fill="#BE434F" transform="scale(0.600124 0.600124)" d="M1739.67 321.499C1743.69 321.748 1745.27 322.912 1748.29 325.577C1764.13 339.53 1789.16 368.843 1795.3 388.866C1799.6 402.901 1801.22 417.739 1806.07 431.634C1808.38 438.255 1816.33 443.371 1816.76 450.485C1813.55 453.385 1808.09 454.965 1804.06 456.592C1774.5 468.511 1743.02 473.016 1711.39 474.55C1717.42 488.994 1712.28 534.758 1712.35 552.869C1712.38 560.624 1717.3 574.299 1715.86 580.503L1714.47 581.78C1709.97 581.672 1705.52 581.538 1701.04 581.063C1698.51 576.733 1695.98 572.32 1691.8 569.4C1695.02 558.779 1695.23 476.703 1691.91 466.097C1714.12 464.696 1735.09 465.705 1757.32 461.584C1764.51 460.25 1777.33 457.987 1781.56 451.535C1788.27 441.31 1783.51 413.386 1781.01 401.982Q1780.7 400.536 1780.35 399.098Q1780 397.661 1779.62 396.232Q1779.24 394.803 1778.82 393.385Q1778.4 391.966 1777.95 390.558Q1777.49 389.15 1777.01 387.754Q1776.52 386.357 1776 384.973Q1775.47 383.59 1774.92 382.219Q1774.36 380.848 1773.77 379.492Q1773.18 378.136 1772.56 376.794Q1771.93 375.453 1771.28 374.128Q1770.62 372.802 1769.93 371.493Q1769.24 370.184 1768.52 368.893Q1767.8 367.601 1767.05 366.328Q1766.3 365.055 1765.51 363.8Q1764.73 362.546 1763.91 361.312Q1763.1 360.077 1762.25 358.863Q1761.41 357.649 1760.53 356.457Q1759.66 355.264 1758.76 354.093Q1757.85 352.922 1756.92 351.774Q1755.99 350.626 1755.02 349.502Q1754.06 348.377 1753.08 347.277Q1752.09 346.176 1751.07 345.1Q1750.06 344.025 1749.02 342.974Q1747.97 341.924 1746.91 340.9Q1745.84 339.875 1744.75 338.878Q1743.66 337.88 1742.54 336.91Q1741.42 335.94 1740.28 334.997Q1739.14 334.055 1737.98 333.141Q1736.82 332.227 1735.63 331.342Q1734.45 330.458 1733.24 329.602Q1732.03 328.747 1730.81 327.922Q1729.58 327.097 1728.33 326.302C1731.81 325.344 1737.24 324.213 1739.67 321.499Z"/>
	<path fill="#BE434F" transform="scale(0.600124 0.600124)" d="M1935.95 326.499C1938.31 326.734 1938.92 326.618 1940.44 328.62C1945.44 335.225 1981.15 404.535 1980.45 409.201C1980.42 409.336 1980.4 409.473 1980.36 409.604C1979.98 410.734 1979.25 411.87 1978.37 412.669C1972.56 417.924 1965.37 422.094 1959.2 427.008C1947.72 436.151 1936.02 448.971 1923.12 455.868C1918.42 450.698 1913.91 447.558 1907.4 444.998C1924.02 441.808 1949.57 423.389 1963.11 412.897C1963.21 412.315 1963.3 411.667 1963.26 411.078C1962.78 404.322 1934.53 340.965 1929.1 336.613C1929.1 336.787 1929.12 336.963 1929.11 337.137C1928.64 342.223 1904.57 373.432 1900 377.027C1901.78 377.453 1903.55 377.893 1905.28 378.465C1911.19 380.413 1915.67 382.849 1918.4 388.712C1919.21 390.434 1919.79 391.503 1919.08 393.327C1911.96 392.837 1907.08 385.645 1899.31 385.974C1897.98 386.644 1896.46 387.366 1895.67 388.692C1885.61 405.683 1899.15 517.29 1892.23 528.497C1896.87 535.921 1892.92 576.691 1896.19 590.033C1898.92 601.174 1913.85 609.327 1915.3 616.478C1914.95 620.195 1908.72 625.38 1906.06 627.934C1900.92 632.874 1885.81 648.143 1878.92 648C1872.04 639.521 1889.95 619.75 1890.17 611.138C1890.17 610.998 1890.16 610.859 1890.16 610.719C1889 605.316 1880.33 597.604 1876.5 593.466C1877.01 591.826 1877.43 590.184 1877.72 588.491C1879.7 577.045 1877.23 564.214 1877.28 552.569C1877.48 506.822 1878.26 461.129 1877.85 415.37C1877.69 397.561 1878.93 376.361 1876.39 358.91C1876.11 356.986 1875.34 355.411 1874.23 353.834L1844.79 353.835C1846.97 353.333 1849.13 352.756 1851.24 351.993C1858.95 349.198 1883.67 338.241 1886.95 331.299C1889.71 334.987 1890.24 338.586 1890.78 343.056C1891.71 350.678 1893.53 368.082 1888.62 374.341C1899.54 368.021 1905.63 354.577 1914.51 345.745C1919.54 340.748 1925.73 337.653 1931.13 333.193C1933.23 331.459 1935.63 329.341 1935.95 326.499Z"/>
	<path fill="#461446" transform="scale(0.600124 0.600124)" d="M1841.22 358.5C1851.04 358.206 1861.4 357.307 1871.16 358.357C1871.23 358.531 1871.3 358.705 1871.38 358.878C1871.48 359.095 1871.59 359.307 1871.68 359.527C1872.72 362.004 1872.87 364.39 1872.96 367.037C1874.36 407.673 1873.09 448.78 1873.18 489.462C1873.24 521.321 1874.95 553.496 1873.75 585.309C1873.6 589.411 1873.29 593.179 1871.7 597.026C1874.05 598.047 1875.83 599.696 1877.68 601.438C1880.44 604.035 1884.34 607.947 1884.46 611.966C1884.48 612.156 1884.51 612.346 1884.51 612.537C1884.65 620.34 1876.81 636.605 1871.54 642.158C1868.48 639.243 1865.06 637.455 1861.37 635.502C1861.2 635.025 1861.2 634.995 1860.95 634.478C1857.5 627.286 1831.03 610.996 1823.59 608.121C1827.36 606.27 1830.38 603.538 1832.73 600.061C1835.07 596.606 1836.07 593.091 1836.5 588.981C1837.98 574.682 1837.32 559.555 1837.46 545.163Q1837.86 500.612 1837.46 456.061C1837.36 437.269 1839.16 396.608 1835.74 379.905C1832.78 375.359 1827.24 374.077 1822.33 372.568C1829.63 369.311 1833.73 361.748 1841.22 358.5Z"/>
	<path fill="#461446" transform="scale(0.600124 0.600124)" d="M1722.87 328.499C1723.06 328.486 1723.26 328.467 1723.45 328.461C1728.95 328.296 1735.23 335.128 1738.89 338.782C1766.32 366.151 1780.93 396.886 1780.79 436.121C1780.77 440.993 1779.91 446.982 1776.16 450.495C1760.77 464.931 1707.45 461.645 1686.5 461.015C1687.2 461.941 1687.8 462.94 1688.14 464.057C1690.93 473.131 1689.99 563.148 1686.77 569.484C1689.06 570.612 1690.71 572.148 1692.43 574.004C1694.69 576.448 1697.63 580.197 1697.48 583.692C1715.9 585.321 1737.18 594.401 1755.47 588.801C1763.49 586.344 1769.84 580.924 1773.66 573.47C1777.73 565.525 1778.64 555.944 1775.7 547.477C1772.74 538.976 1766.46 532.998 1758.43 529.236C1763.05 526.787 1765.26 521.097 1770.04 518.768C1772.94 517.351 1777.44 517.275 1780.45 518.419C1785.4 520.298 1789.89 524.391 1792.13 529.183C1795.34 536.043 1794.29 544.101 1791.63 550.948C1784.39 569.516 1757.68 601.125 1739.33 609.151C1738.12 613.711 1734.03 613.636 1732.63 616.767C1731.76 618.697 1734.76 623.464 1734.02 626.452C1728.56 624.524 1720.64 615.202 1716.09 611.168C1702.57 599.161 1661.38 561.912 1647.44 554.838C1647.72 554.329 1647.8 554.2 1648.04 553.607C1650.83 546.722 1650.05 401.989 1646.67 393.139C1647.3 392.869 1647.9 392.572 1648.5 392.228C1655.65 388.092 1684.33 358.218 1685.85 351.588C1685.94 351.826 1686.04 352.064 1686.14 352.304C1689.37 360.586 1691.12 434.222 1687.66 441.878C1702.42 442.132 1721.96 446.043 1736.03 441.083C1739.8 439.754 1742.89 437.194 1744.53 433.508C1748.25 425.138 1744.2 412.453 1741.17 404.249C1735.34 388.462 1706.81 351.759 1691.95 344.948C1700.79 342.64 1717.01 335.556 1722.87 328.499Z"/>
	<path fill="#040100" transform="scale(0.600124 0.600124)" d="M1146.57 137.49C1148.03 137.392 1150.15 137.134 1151.49 137.797C1156.56 140.294 1194.73 194.901 1202.05 204.021C1209.56 213.361 1217.56 222.359 1226.47 230.39C1237.67 240.487 1250.16 246.65 1262.42 254.999C1263.4 255.666 1263.99 256.623 1264.45 257.693C1265.47 267.41 1252.37 277.25 1251.33 287.963C1249.5 306.751 1256.31 370.865 1249.95 382.708C1262.46 377.759 1331.36 330.418 1339.36 319.657C1350.35 323.282 1404.96 384.032 1419.26 397.007C1423.57 400.914 1428.7 403.232 1433.27 406.665C1433.4 406.763 1433.53 406.864 1433.66 406.964C1434.38 405.887 1434.98 404.74 1435.24 403.458C1437.04 394.418 1437.67 341.204 1433.09 334.558C1417.77 334.028 1402.26 334.58 1386.91 334.639C1391.79 331.251 1394.33 325.379 1396.87 320.163C1399.4 314.961 1404.6 303.575 1402.68 298.019C1411.66 300.314 1421.68 308.022 1431.6 304.225C1433.95 303.323 1435.43 301.756 1436.24 299.364C1437.78 294.822 1435.73 286.227 1433.92 282.001C1434.03 281.899 1434.15 281.8 1434.26 281.696C1434.44 281.523 1434.62 281.344 1434.81 281.17C1446.4 270.277 1455.04 252.835 1463.8 239.405C1471.11 228.192 1478.88 217.273 1486.12 206.016C1489.19 201.233 1493.65 191.135 1498 188.032C1498.39 187.755 1499.82 187.587 1500.35 187.457C1515.19 194.03 1505.46 280.365 1507.94 297.424C1508.37 300.337 1509.12 302.35 1511.08 304.594C1516.83 306.163 1521.23 290.941 1528.07 289.06C1528.76 289.67 1529.2 289.808 1529.4 290.739C1530.99 298.548 1531.25 331.354 1527.1 337.698C1528.82 336.304 1530.58 334.778 1531.9 332.992C1542.95 318.024 1552.24 294.548 1560.91 277.394C1570.9 257.619 1584.38 235.135 1591.9 214.838C1592.45 213.361 1592.53 212.21 1592.29 210.647C1593.06 211.01 1593.81 211.393 1594.54 211.829C1602.61 216.657 1615.7 229.878 1617.78 239.225C1620.16 249.908 1620.9 322.119 1616.72 328.735C1622.02 327.984 1627.25 326.411 1632.43 325.071C1636.48 327.362 1639.67 329.923 1641.27 334.433C1647.6 330.965 1650.43 319.791 1656.75 317.904C1658.25 319.43 1658.37 320.953 1658.42 323.051C1658.64 331.95 1653.64 364.044 1647.82 370.122C1636.83 370.542 1625.73 370.376 1614.72 370.498C1615.23 371.476 1615.63 372.369 1615.94 373.435C1618.19 381.283 1616.69 429.338 1616.72 440.659C1616.82 488.439 1618.22 536.486 1617.06 584.237C1616.89 591.15 1617.61 612.265 1614.39 617.509C1630.56 619.225 1647.8 627.801 1664.1 624.252C1669.84 623.002 1672.14 616.709 1675.07 612.287C1676.41 610.266 1677.25 608.793 1679.66 608.295C1686.43 620.006 1693.33 630.119 1701.52 640.826C1704.57 644.825 1711.63 653.64 1710.9 658.825C1710.93 658.955 1710.97 659.084 1710.99 659.215C1711.04 659.433 1711.06 659.653 1711.1 659.872C1711.23 660.664 1711.32 661.432 1711.34 662.237C1711.55 671.337 1699.31 709.111 1692.77 715.407C1692.68 715.218 1692.61 715.016 1692.49 714.84C1686.18 705.081 1581.9 660.027 1565.15 655.423C1565.14 655.894 1565.16 656.575 1565.06 657.066C1562.95 667.598 1545.37 688.388 1536.61 694.456C1534.43 689.835 1520.64 680.765 1515.9 676.993C1500.75 664.939 1486.06 652.337 1471.07 640.084C1462.33 632.936 1452.35 626.056 1444.35 618.166C1441.35 615.202 1436.8 610.172 1436.05 605.968C1435.72 604.13 1435.29 603.331 1434.04 601.932C1433.91 601.782 1433.76 601.639 1433.63 601.493C1433.87 601.011 1434.09 600.52 1434.29 600.021C1437.63 591.73 1436.48 432.798 1435.08 413.106C1434.94 411.155 1434.34 409.412 1433.53 407.648C1431.16 413.612 1421.93 419.256 1416.42 422.148C1416.76 422.825 1416.9 423.018 1417.12 423.694C1419.84 431.867 1419.33 590.225 1416.55 596.308C1416.52 596.467 1416.51 596.634 1416.45 596.787C1414.46 602.291 1345.76 644.905 1336.33 648.814C1332.23 641.962 1252.15 580.864 1241.54 573.012C1244.52 558.824 1242.52 524.273 1242.49 507.966C1242.46 485.266 1243.99 461.334 1242.03 438.781C1241.84 436.646 1241.34 435.013 1240.23 433.18C1235.84 438.415 1210.58 447.443 1202.8 451.702C1186.55 460.611 1163 479.783 1148.2 485.568C1148.28 484.799 1148.23 484.192 1147.97 483.456C1145.2 475.626 1121.74 445.524 1114.73 441.762C1114.8 442.011 1114.86 442.262 1114.94 442.51C1115.02 442.781 1115.11 443.049 1115.2 443.32C1118.7 454.84 1116.15 507.696 1116.14 522.518C1116.12 555.13 1117.91 588.767 1115.74 621.29C1115.59 623.596 1115.19 625.309 1114.06 627.329C1107.62 621.944 1092.32 619.717 1084.22 617.984C1096.94 625.047 1106.97 648.012 1114.6 660.015C1116.66 663.253 1119.45 665.828 1121.45 669.133C1121.46 669.348 1121.49 669.563 1121.49 669.779C1121.56 673.467 1114.69 681.679 1112.42 685.014C1101.31 701.391 1091.56 717.011 1083.11 734.979C1076.75 748.495 1071.43 762.158 1067.2 776.502C1064.18 786.722 1061.91 797.843 1057.93 807.69C1057.04 809.89 1055.58 811.461 1053.85 813.029C1053.95 812.388 1054.06 811.753 1054.13 811.108C1055.2 801.364 1048.53 787.298 1045.1 778.128C1028.7 734.282 1009.59 692.061 980.219 655.215C985.817 652.695 991.015 649.965 996.231 646.726L996.538 524.461C1001.81 529.917 1007.6 535.485 1013.99 539.601L1013.81 431.167L1004.87 424.798L997.797 431.894L998.133 458.433C992.09 453.298 985.607 446.341 981.682 439.447C977.508 432.114 976.425 424.111 978.82 415.981C983.677 399.5 999.045 390.177 1013.24 382.612L1013.6 284.849C1013.83 261.85 1016.33 236.577 1012.07 213.988C1008.88 197.094 1001.01 180.158 994.941 164.081C1012.12 171.483 1024.67 176.075 1043.67 172.393C1057.09 169.793 1097.18 156.234 1104.72 145.053C1105.64 146.374 1106.3 147.71 1106.59 149.306C1107.48 154.332 1107.78 163.507 1104.84 167.876C1113.28 164.055 1141.88 144.556 1146.57 137.49ZM1335.72 333.495C1333.11 341.413 1265.07 387.272 1253.84 392.825L1252.96 393.249C1256.86 405.675 1256.38 554.224 1252.7 565.911C1262.28 571.022 1309.41 606.776 1312.54 614.497C1317.16 616.525 1320.66 619.097 1323.95 622.944C1333.07 619.836 1383.44 591.661 1387.8 584.859C1387.88 584.727 1387.93 584.576 1388 584.435C1391.13 572.75 1391.25 405.546 1387.98 399.468C1387.91 399.323 1387.82 399.185 1387.73 399.043C1386.9 390.958 1354.94 362.328 1347.11 355.997Q1345.6 354.77 1343.98 353.696C1345.25 348.574 1344.97 340.489 1342.19 335.843C1341.45 334.616 1340.87 333.463 1339.42 333.167C1338.11 332.898 1336.99 333.188 1335.72 333.495ZM1507.43 355.496C1509.66 383.354 1511.98 609.341 1506.61 618.684C1506.84 618.81 1507.08 618.933 1507.31 619.062C1513.57 622.546 1521.91 634.39 1528.93 634.198C1530.89 632.744 1531.25 632.322 1532.27 630.103C1534.66 628.334 1537.79 626.023 1538.48 622.931C1538.58 622.484 1538.55 622.19 1538.55 621.716C1541.76 614.082 1540.53 379.496 1538.44 374.592C1538.17 373.972 1537.83 373.425 1537.45 372.875Q1525.22 372.01 1512.97 371.851C1514.31 368.063 1513.71 362.604 1512.02 358.987C1511.37 357.589 1510.52 356.687 1509.23 355.876L1507.43 355.496ZM1119.11 238.496C1110.78 251.121 1122.35 358.868 1115.47 371.229C1121.81 370.322 1128.19 369.571 1134.39 367.962C1136.54 365.93 1138.67 363.213 1139.37 360.261C1144.95 356.992 1151.54 351.326 1153.37 344.846C1156.66 333.194 1155.98 267.701 1153.25 255.116C1152.42 250.816 1148.07 246.732 1144.59 244.359C1136.87 239.1 1128.23 237.376 1119.11 238.496Z"/>
	<path fill="#461446" transform="scale(0.600124 0.600124)" d="M1617.99 337.5C1623.9 336.717 1632.24 336.387 1637.16 340.289C1638.41 341.274 1638.17 341.752 1638.29 343.234C1636.27 345.419 1634.46 346.337 1631.78 347.502C1630.91 347.813 1630.02 347.74 1629.11 347.687C1624.14 347.398 1618.34 347.427 1614.86 343.426C1614.84 340.222 1615.9 339.764 1617.99 337.5Z"/>
	<path fill="#BE434F" transform="scale(0.600124 0.600124)" d="M1546.67 637.495L1549.14 637.828C1551.21 639.668 1553.82 641.941 1554.94 644.527C1556.88 648.978 1556.05 653.456 1554.21 657.795C1551.32 664.631 1543.35 675.078 1536.23 678.053C1533.01 674.649 1530.65 668.844 1528.38 664.649C1533.8 659.884 1539.54 654.778 1543.51 648.699C1545.77 645.232 1547.57 641.7 1546.67 637.495Z"/>
	<path fill="#BE434F" transform="scale(0.600124 0.600124)" d="M1678.84 632.496C1680.14 632.713 1681.1 633.096 1682.1 633.995C1686.8 638.254 1699.94 651.847 1700.31 657.901C1700.9 659.884 1700.92 661.807 1700.72 663.846C1699.87 672.351 1695.15 693.45 1688.34 699.059L1687.79 700.373C1683.01 696.125 1678.33 692.156 1672.21 690.041C1677.98 685.206 1680.71 676.719 1682.24 669.573C1684.62 658.477 1685.17 642.208 1678.84 632.496Z"/>
	<path fill="#461446" transform="scale(0.600124 0.600124)" d="M1587.21 250.495L1589.44 251.417C1588.73 266.807 1590.53 337.687 1587.55 345.444C1585.94 349.64 1561.62 346.872 1555.96 349.562C1552.14 351.377 1551.31 354.311 1550 358.048L1548.36 358.584Q1545.71 356.591 1543.13 354.5C1542.23 351.967 1539.04 350.59 1536.84 349.212C1535.8 346.71 1536.74 345.601 1537.94 343.285C1542.22 334.969 1548.17 327.232 1552.97 319.166C1562.64 302.919 1581.75 267.282 1587.21 250.495Z"/>
	<path fill="#BE434F" transform="scale(0.600124 0.600124)" d="M1049.55 547.412L1052.82 548.146C1059.91 554.918 1064.57 565.398 1070.55 573.288C1077.71 582.736 1086.21 591.32 1092.94 601.068C1094.2 602.904 1095.01 604.785 1095.5 606.952C1088.41 604.712 1079.21 603.488 1071.83 602.934C1068.65 594.562 1063.25 589.263 1055.56 585.02C1055.75 585.196 1055.95 585.369 1056.14 585.546C1056.45 585.843 1056.75 586.158 1057.08 586.442C1057.96 587.202 1058.81 587.882 1059.59 588.753C1067.3 597.357 1075.89 619.952 1082.12 631.323C1087.08 640.363 1093.15 649.023 1097.67 658.26C1098.26 659.455 1098.42 660.42 1098.32 661.729C1099.05 662.331 1099.77 662.973 1100.34 663.735C1101.91 665.848 1102.59 667.848 1102.33 670.502C1102.24 671.199 1102.13 671.892 1101.97 672.577C1100.24 679.978 1080.79 710.502 1074.51 714.374C1074.82 713.821 1075.11 713.26 1075.41 712.703C1078.76 706.553 1078.42 699.634 1078.17 692.797C1077.34 669.007 1069.33 623.098 1051.13 606.228C1053.33 593.714 1054.6 558.426 1049.55 547.412Z"/>
	<path fill="#BE434F" transform="scale(0.600124 0.600124)" d="M1344.92 336.491C1346.09 336.423 1347.28 336.481 1348.45 336.5C1357.12 342.719 1417.26 399.514 1419.14 405.731C1419.13 405.886 1419.15 406.044 1419.12 406.198C1418.35 410.481 1411.22 416.505 1407.69 418.758C1407.81 419.042 1407.94 419.323 1408.04 419.611C1410.92 427.35 1410.14 583.542 1407.63 589.482C1407.57 589.623 1407.52 589.771 1407.45 589.906C1404.29 595.746 1357.82 622.988 1349.27 626.046C1349.23 626.201 1349.22 626.364 1349.16 626.511C1347.75 629.878 1340.4 632.334 1337.18 633.736C1334.64 630.319 1331.42 628.422 1327.63 626.647C1327.85 626.574 1328.07 626.503 1328.29 626.428C1336.77 623.545 1388.7 592.445 1391.89 586.002C1392.25 585.335 1392.54 584.728 1392.79 584.014C1395.89 575.014 1395.71 405.389 1391.67 396.582C1390.45 387.373 1357.59 361.563 1349.87 353.199C1346.03 349.036 1349.19 341.792 1344.92 336.491Z"/>
	<path fill="#BE434F" transform="scale(0.600124 0.600124)" d="M1495.9 209.497C1496.95 210.204 1497.7 210.537 1498.18 211.784C1500.89 218.821 1500.19 304.103 1497.6 310.294C1501.43 311.887 1505.17 313.586 1508.79 315.619C1514.31 318.716 1519.59 323.09 1521.26 329.468C1522.78 335.302 1521.19 342.296 1518.21 347.385C1518.43 346.352 1518.63 345.29 1518.62 344.23C1518.59 340.093 1511.74 329.138 1508.65 326.445C1506.8 324.837 1506.25 324.753 1503.97 324.88C1500.8 327.419 1500.15 331.532 1499.7 335.366C1497.97 350.053 1500.08 366.205 1500.17 381.059L1500.79 530.63C1500.93 557.671 1502.29 585.035 1500.99 612.038C1500.83 615.234 1500.77 618.317 1499.15 621.176C1503.42 623.51 1509.5 627.002 1512.29 631.051C1517.23 633.3 1522.46 637.637 1525.87 641.846C1524.53 644.707 1520.81 646.083 1518.07 647.24C1505.69 640.328 1495.03 628.235 1481.73 623.516C1482.26 622.57 1482.72 621.614 1483.06 620.58C1486.95 608.529 1483.6 546.473 1483.59 527.96C1483.55 439.757 1485.63 351.229 1483.58 263.047C1483.38 254.466 1484.77 238.885 1480.82 231.323C1482.59 230.44 1483.82 229.275 1485.17 227.858C1489.09 223.751 1496 215.31 1495.9 209.497Z"/>
	<path fill="#BE434F" transform="scale(0.600124 0.600124)" d="M1593.52 229.498C1596.3 229.526 1598.41 230.726 1600.65 232.254C1604.04 234.569 1606.57 237.491 1607.23 241.629C1610.74 263.707 1608.12 287.869 1607.89 310.094C1607.78 320.911 1609.15 331.758 1608.46 342.57C1608.27 345.607 1608.27 348.721 1606.44 351.29C1612.41 350.987 1618.42 350.173 1624.37 349.571C1624.61 349.658 1624.84 349.738 1625.08 349.833C1628.07 351.054 1630.24 353.471 1631.53 356.352C1634.25 354.163 1635.41 351.4 1637.34 348.599C1638.79 346.493 1640.26 344.976 1642.86 344.473C1643.54 345.137 1644.08 345.344 1644.19 346.322C1644.68 350.379 1643.51 354.225 1640.97 357.409C1635.2 359.875 1612.98 359.629 1605.73 359.934C1606 360.618 1606.23 361.298 1606.48 361.989C1608.96 368.938 1608.33 378.002 1608.48 385.402C1608.8 401.026 1607.25 416.532 1607.38 432.1L1607.46 576.561C1607.36 591.452 1610.68 609.988 1606.65 624.272C1624.94 627.515 1641.78 631.892 1660.42 633.381C1662.93 633.582 1664.95 633.642 1666.6 635.587L1663.37 637.616C1662.8 638.373 1662.43 638.845 1661.62 639.356C1647.74 648.156 1597.18 631.391 1580.63 627.289C1585.4 624.108 1589.58 616.734 1591.51 611.33C1595.29 600.739 1592.14 474.91 1592.18 454.025C1592.23 427.495 1593.63 400.921 1593.1 374.395C1593.02 370.589 1592.86 366.681 1591.26 363.17C1583.45 359.543 1559.76 362.117 1550.76 363.005C1552.99 360.521 1553.97 356.486 1556.06 354.364C1561.89 348.452 1584.17 356.371 1591.19 350.603C1592.54 346.935 1592.84 343.089 1593.01 339.215C1594.02 316.146 1592.86 292.73 1593.04 269.612C1593.14 257.112 1595.79 241.659 1593.52 229.498Z"/>
	<path fill="#461446" transform="scale(0.600124 0.600124)" d="M1548.79 366.499C1560.69 364.613 1574.34 365.511 1586.38 366.119C1587.35 368.013 1587.97 369.863 1588.14 371.996C1589.6 390.23 1588.71 409.11 1588.76 427.424L1588.66 530.705L1588.14 581.081C1588.01 590.416 1588.63 600.849 1586.97 610.044C1585.88 616.06 1579.62 626.839 1574.44 630.279C1601.3 633.56 1630.2 650.778 1657.94 645.323C1662.71 644.384 1668.42 642.169 1671.16 637.906C1672.02 636.566 1672.51 635.946 1673.85 635.097L1676.13 635.653C1678.09 637.849 1678.64 640.685 1678.98 643.53C1679.63 648.887 1680.48 660.205 1677.16 664.499C1677.54 665.675 1677.77 666.843 1677.67 668.087C1677.08 675.561 1673.49 683.935 1667.8 688.856C1662.7 679.821 1570.51 643.555 1553.89 636.879C1551.86 627.76 1550.8 618.828 1550.42 609.494C1549.71 591.823 1550.94 573.855 1550.97 556.136L1551.05 433.432C1551.11 413.058 1553.3 391.345 1550.86 371.164C1550.63 369.237 1550.1 367.965 1548.79 366.499Z"/>
	<path fill="#461446" transform="scale(0.600124 0.600124)" d="M1476.6 239.497C1477.9 239.765 1478.02 240.093 1478.96 240.958C1480.86 255.373 1479.55 271.33 1479.65 285.947Q1479.8 341.025 1479.38 396.102L1479.42 552.009C1479.45 571.788 1480.77 591.436 1480.18 611.262C1480.03 616.154 1480.47 621.939 1477.46 626.065C1485.71 628.272 1494.74 634.739 1501.71 639.534C1506.1 642.546 1515.55 648.557 1516.56 653.914C1525.15 650.915 1531.79 642.938 1540.38 639.551L1541.35 640.425C1541.04 642.807 1540.4 644.726 1539.07 646.734C1538.61 647.427 1521.58 667.543 1521.36 667.718C1514.01 662.282 1507.09 654.659 1499.08 650.384C1498.81 650.242 1498.55 650.107 1498.28 649.968C1495.15 643.07 1453.52 612.255 1445.06 608.043C1450.23 585.788 1446.07 546.109 1446.11 521.717C1446.21 457.834 1448.19 393.623 1445.91 329.789C1445.82 327.29 1445.69 325.38 1444.57 323.077C1440.33 320.226 1407.37 322.637 1400.05 322.856C1403.98 320.195 1406.03 317.032 1407.68 312.645C1408.61 312.674 1408.41 312.631 1409.12 312.746C1417.6 314.126 1435.88 316.873 1443.31 312.049C1445.84 310.41 1447.37 307.935 1447.98 305.013C1449.15 299.442 1448.72 288.133 1445.64 283.368C1452.97 278.06 1474.24 248.371 1476.6 239.497Z"/>
	<path fill="#BE434F" transform="scale(0.600124 0.600124)" d="M1111.61 207.495Q1113.94 207.182 1116.28 207.101C1128.18 206.601 1141.75 208.64 1150.73 217.261C1156.61 222.913 1159.56 231.526 1159.8 239.576L1157.16 240.659L1158.77 241.013C1154.68 240.205 1149.54 233.345 1145.67 230.936C1132.25 222.567 1116.7 225.936 1102.39 229.413C1102.47 229.588 1102.55 229.76 1102.62 229.938C1106.07 238.322 1104.99 377.696 1101.42 385.987C1117.25 383.865 1143.97 378.532 1157.28 370.635C1157.53 371.236 1157.77 371.826 1157.98 372.442C1161.37 382.31 1160.88 399.783 1156.22 409.135C1156.44 407.889 1156.48 406.971 1156.24 405.717C1154.99 399.176 1148.7 387.819 1143.15 384.066C1133.72 390.64 1117.31 392.855 1106.08 394.556C1107.93 395.646 1109.71 396.871 1111.18 398.447C1117.63 405.383 1142.58 439.087 1142.41 446.687C1158.64 442.69 1200.72 423.915 1215.23 415.174C1217.68 413.699 1219.96 412.64 1220.63 409.765C1222.52 401.692 1221.63 392.709 1221.8 384.452C1222.39 357.508 1221.93 330.814 1221.31 303.88C1221.15 297.271 1222.2 290.553 1221.78 283.994C1221.59 281.117 1220.98 278.886 1219.43 276.443C1227 273.613 1234.41 270.528 1241.81 267.297L1244.24 268.617L1244.28 267.386L1244.75 267.51C1244.69 273.021 1241.45 276.452 1238.16 280.525C1239.92 292.9 1242.84 386.744 1239.28 394.485C1239.48 394.824 1239.78 395.266 1239.92 395.656C1241.53 400.056 1240.47 410.73 1238.49 414.994C1238.43 415.137 1238.38 415.291 1238.3 415.423C1236.48 418.216 1156.4 463.338 1151.15 464.976C1151.25 464.152 1151.17 463.638 1150.81 462.878C1145.88 452.266 1111.49 413.468 1101.05 409.101C1102.45 411.271 1102.95 413.051 1103.14 415.613C1105.27 443.581 1103.72 472.852 1103.78 500.975C1103.84 533.059 1105.4 566.011 1103.39 597.992L1101.81 598.61L1103.31 598.968C1103.23 599.711 1103.53 599.882 1103.93 600.489L1102.23 602.119L1102.55 602.936C1096.57 599.009 1085.07 583.13 1079 577.019C1088.38 565.179 1085.05 506.202 1084.02 488.582C1083.03 471.606 1065.41 435.474 1052.71 424.136C1061.54 427.738 1074.99 441.585 1084.01 441.142C1085.64 439.266 1085.48 430.705 1085.72 427.9C1086.72 416.145 1085.37 404.042 1085.5 392.229C1085.82 361.261 1090.6 243.924 1074.05 224.398C1086.8 218.172 1097.85 211.5 1111.61 207.495Z"/>
	<path fill="#461446" transform="scale(0.600124 0.600124)" d="M1335.72 333.495C1336.99 333.188 1338.11 332.898 1339.42 333.167C1340.87 333.463 1341.45 334.616 1342.19 335.843C1344.97 340.489 1345.25 348.574 1343.98 353.696Q1345.6 354.77 1347.11 355.997C1354.94 362.328 1386.9 390.958 1387.73 399.043C1387.82 399.185 1387.91 399.323 1387.98 399.468C1391.25 405.546 1391.13 572.75 1388 584.435C1387.93 584.576 1387.88 584.727 1387.8 584.859C1383.44 591.661 1333.07 619.836 1323.95 622.944C1320.66 619.097 1317.16 616.525 1312.54 614.497C1309.41 606.776 1262.28 571.022 1252.7 565.911C1256.38 554.224 1256.86 405.675 1252.96 393.249L1253.84 392.825C1265.07 387.272 1333.11 341.413 1335.72 333.495ZM1295.2 398.297Q1294.69 397.87 1294.16 397.484Q1293.62 397.097 1293.05 396.752Q1292.49 396.408 1291.9 396.107Q1291.3 395.807 1290.69 395.552Q1290.08 395.297 1289.45 395.09Q1288.82 394.883 1288.18 394.724Q1287.54 394.565 1286.88 394.456Q1286.23 394.346 1285.57 394.287L1284.79 395.357L1285.89 397.895L1284.25 398.972C1283.36 397.745 1283.31 397.827 1281.82 397.463C1281.08 401.187 1288.19 419.426 1288.75 425.967C1290.88 450.787 1289.07 476.543 1289.2 501.485C1289.31 522.947 1292.95 554.037 1288.67 574.418C1298.93 577.125 1323.17 583.966 1331.24 590.418C1332.12 590.098 1332.99 589.765 1333.84 589.371C1339.61 586.701 1349.04 579.1 1351.32 573.099C1351.69 572.608 1351.98 572.216 1352.19 571.629C1355.57 562.077 1353.08 497.791 1353.21 481.551C1353.34 464.162 1354.5 446.754 1354.04 429.363C1353.91 424.46 1354.24 417.718 1352.08 413.233C1350.3 409.529 1346.66 406.046 1342.74 404.72C1332.36 401.216 1323.38 414.822 1314.81 418.958L1314.33 419.183C1315.24 418.393 1316.14 417.579 1316.96 416.695C1319.71 413.718 1321.99 410.021 1324.65 406.884C1332.03 398.196 1346 385.657 1345.54 373.53C1343.43 373.148 1341.15 373.167 1339.01 373.113C1318.66 372.608 1308.61 385.593 1295.2 398.297Z"/>
	<path fill="#040100" transform="scale(0.600124 0.600124)" d="M1295.2 398.297C1308.61 385.593 1318.66 372.608 1339.01 373.113C1341.15 373.167 1343.43 373.148 1345.54 373.53C1346 385.657 1332.03 398.196 1324.65 406.884C1321.99 410.021 1319.71 413.718 1316.96 416.695C1316.14 417.579 1315.24 418.393 1314.33 419.183L1314.81 418.958C1323.38 414.822 1332.36 401.216 1342.74 404.72C1346.66 406.046 1350.3 409.529 1352.08 413.233C1354.24 417.718 1353.91 424.46 1354.04 429.363C1354.5 446.754 1353.34 464.162 1353.21 481.551C1353.08 497.791 1355.57 562.077 1352.19 571.629C1351.98 572.216 1351.69 572.608 1351.32 573.099C1349.04 579.1 1339.61 586.701 1333.84 589.371C1332.99 589.765 1332.12 590.098 1331.24 590.418C1323.17 583.966 1298.93 577.125 1288.67 574.418C1292.95 554.037 1289.31 522.947 1289.2 501.485C1289.07 476.543 1290.88 450.787 1288.75 425.967C1288.19 419.426 1281.08 401.187 1281.82 397.463C1283.31 397.827 1283.36 397.745 1284.25 398.972L1285.89 397.895L1284.79 395.357L1285.57 394.287Q1286.23 394.346 1286.88 394.456Q1287.54 394.565 1288.18 394.724Q1288.82 394.883 1289.45 395.09Q1290.08 395.297 1290.69 395.552Q1291.3 395.807 1291.9 396.107Q1292.49 396.408 1293.05 396.752Q1293.62 397.097 1294.16 397.484Q1294.69 397.87 1295.2 398.297ZM1330.98 417.498C1330.91 417.661 1330.85 417.826 1330.78 417.987C1328.15 423.831 1322.03 428.256 1320.31 434.446C1316 449.936 1319.48 468.43 1319.82 484.372C1320.4 511.42 1321.47 539.268 1320.22 566.273C1323.14 568.486 1330.75 573.246 1331.33 576.906C1333.74 578.315 1335.91 579.441 1338.81 578.523C1341.4 577.705 1342.13 576.069 1343.46 573.968C1344.9 549.176 1342.96 523.463 1342.95 498.548L1343.04 445.748C1343.01 436.998 1343.63 427.345 1342.24 418.707C1339.55 416.696 1334.62 416.976 1331.41 417.43C1331.27 417.45 1331.12 417.476 1330.98 417.498Z"/>
	<path fill="#BE434F" transform="scale(0.600124 0.600124)" d="M1332.84 378.498C1334.99 378.093 1336.45 377.749 1338.54 378.5C1340.49 386.814 1323.79 396.224 1319.47 403.039C1315.67 409.022 1315.22 417.033 1311.94 423.471L1310.91 423.665L1307.79 420.499C1306.49 412.891 1304.84 407.353 1299.49 401.572C1310.21 389.144 1317.01 383.508 1332.84 378.498Z"/>
	<path fill="#BE434F" transform="scale(0.600124 0.600124)" d="M1284.25 398.972L1285.89 397.895C1295.57 401.277 1301.12 411.143 1305.37 419.945C1307.78 424.926 1309.88 429.947 1310.65 435.47C1313.13 453.363 1313.19 549.632 1309.51 563.64C1315.3 566.982 1325.88 575.514 1327.8 582.076C1328.12 583.195 1328.29 584.353 1328.44 585.505C1320.38 578.619 1302.19 573.343 1291.84 571.119C1296.29 562.452 1294.5 445.465 1293.43 427.969C1293.06 421.931 1292.37 415.774 1290.57 409.977C1289.35 406.008 1287.46 401.73 1284.25 398.972Z"/>
	<path fill="#461446" transform="scale(0.600124 0.600124)" d="M1145.7 151.498C1146.43 151.72 1146.59 151.721 1147.19 152.031C1158.5 157.928 1196.09 217.467 1213.18 232.318C1218.83 237.228 1241.59 253.543 1243.29 259.514C1243.24 259.655 1243.2 259.802 1243.13 259.936C1239.84 266.105 1221.75 270.578 1215.19 272.476C1215.88 273.537 1216.45 274.649 1216.82 275.864C1220.26 287.215 1217.26 303.446 1217.3 315.328C1217.35 331.111 1220.72 399.179 1215.42 408.48C1211.24 415.033 1153.7 438.532 1144.61 441.314C1144.66 440.604 1144.71 440.486 1144.52 439.687C1142.64 431.925 1120.5 401.343 1114.01 397.869C1121.46 396.993 1133.63 394.822 1139.6 390.128C1147.28 394.288 1151.04 406.627 1156.29 413.518C1157.9 415.627 1158.86 416.329 1161.45 416.627C1162.19 415.965 1162.71 415.287 1163.16 414.391C1166.77 407.263 1165.9 371.947 1163.32 363.838C1161.27 362.801 1148.14 367.797 1144.7 368.638Q1147.01 367.293 1149.19 365.759C1153.49 362.739 1162.55 355.603 1163.41 350.402C1163.85 349.786 1163.95 349.693 1164.26 349.067C1168.73 339.872 1166.8 261.072 1165.5 246.26C1164.91 239.535 1163.81 232.335 1161.49 225.97C1158.32 217.272 1150.7 210.029 1142.39 206.252C1126.45 199.002 1105.63 201.987 1090.58 210.14C1083.06 214.209 1075.77 219.72 1067.76 222.672L1066.88 222.985C1067.87 223.682 1068.81 224.456 1069.57 225.399C1075.78 233.098 1077.62 245.417 1078.74 255.014C1080.69 271.828 1080.16 288.932 1080.15 305.833L1080.17 376.167C1080.24 392.944 1082.83 414.302 1080.72 430.425C1080.43 432.643 1080.3 433.815 1078.46 435.179C1069.34 427.193 1058.03 420.12 1046.31 416.77L1045.89 416.653C1053.13 423.032 1075.95 471.239 1078.55 481.84C1080.26 488.819 1082.37 504.149 1078.51 510.496C1078.9 511.106 1078.87 511.036 1079.25 511.783C1082.29 517.815 1080.52 562.755 1077.87 569.616C1077.26 571.219 1077.22 571.119 1075.67 571.839C1064.84 566.443 1058.99 540.222 1044.6 532.35L1044.19 532.133C1044.32 532.365 1044.44 532.601 1044.57 532.828C1044.7 533.055 1044.86 533.269 1044.99 533.492C1050.11 541.806 1048.51 594.736 1045.66 605.795C1061.5 621.809 1068.11 650.392 1071.48 671.94C1076.41 703.393 1072.94 742.16 1053.77 768.573C1053.97 767.893 1054.12 767.239 1054.18 766.528C1055.1 755.146 1026.25 698.251 1019 686.369Q1014.75 679.256 1009.83 672.59Q1004.91 665.923 999.365 659.766L1009.48 651.303Q1008.77 602.472 1008.96 553.639C1013.5 557.595 1022.67 563.996 1024 570.105C1027.41 560 1028.28 432.945 1024 422.227C1022.63 420.061 1019.24 417.727 1016.94 416.65C1002.12 409.7 999.965 421.045 989.48 424.915C988.886 424.169 988.503 423.597 988.252 422.662C987.164 418.613 987.384 414.932 989.515 411.273C995.811 400.465 1013.34 394.547 1024.86 391.486C1026.41 387.338 1026.63 382.859 1026.78 378.476C1027.84 348.658 1026.18 318.317 1026.19 288.438C1026.2 265.904 1028.41 236.231 1025.63 214.463C1024.48 205.444 1020.35 196.978 1016.85 188.654C1037.3 191.061 1059.55 185.584 1077.69 175.755C1083.38 172.673 1088.52 168.663 1094.23 165.55L1095.89 166.141C1096.21 166.872 1096.46 167.591 1096.67 168.362C1098.12 173.708 1097.36 183.559 1094.53 188.218C1109.34 181.791 1134.82 163.558 1145.7 151.498Z"/>
	<path fill="#040100" transform="scale(0.600124 0.600124)" d="M237.973 184.051C266.059 183.573 294.198 184.009 322.289 184.066C338.278 184.099 354.535 184.72 370.454 183.091C378.048 190.594 384.847 198.962 391.811 207.047C378.817 213.573 366.765 222.066 358.03 233.802L358.172 371.78L369.704 367.711C394.793 383.642 414.69 386.813 444.038 384.908C447.31 394.042 450.594 403.137 454.32 412.1C455.401 387.728 454.214 362.888 454 338.482Q450.791 339.993 447.652 341.644Q444.513 343.296 441.45 345.085Q438.387 346.874 435.406 348.796Q432.426 350.719 429.533 352.772Q426.641 354.824 423.842 357.003Q421.043 359.182 418.343 361.483Q415.643 363.783 413.048 366.201Q410.453 368.619 407.967 371.149C393.701 354.188 377.267 338.679 361.708 322.899C391.092 293.49 417.176 275.937 453.66 256.364C486.086 288.719 514.795 328.617 548.52 359.087C543.267 362.115 537.614 364.663 532.18 367.362Q532.653 407.784 532.497 448.208C532.359 463.86 529.583 502.342 533.014 515.397C535.588 525.194 542.998 533.655 549.257 541.333C555.681 512.292 552.369 475.202 552.466 445.173C552.571 412.372 554.426 378.126 551.666 345.457C549.539 320.288 540.428 306.344 521.496 290.441C554.36 272.04 586.076 252.464 618.242 232.918L617.892 279.027C627.691 264.161 638.346 249.951 648.332 235.227C660.952 247.249 671.696 261.368 684.216 273.619C709.905 257.997 735.394 241.769 761.735 227.273Q761.991 249.567 762.484 271.857C777.669 255.897 790.926 238.056 805.742 221.711C822.916 256.643 837.712 294.958 852.858 330.963C837.145 341.64 816.737 363.116 803.113 377.091C793.5 371.72 782.21 363.567 774.049 356.141C776.588 353.378 781.2 349.491 781.053 345.634C778.647 343.442 774.849 343.609 771.755 343.337C770.185 347.546 767.321 353.713 768.575 358.151L770.741 359.791C774.467 366.962 772.052 384.711 771.854 393.068C800.551 383.188 815.511 375.492 840.776 358.674C850.269 367.75 858.415 378.617 867.617 388.093C862.287 390.619 857.323 393.922 852.311 397.017C857.112 414.832 862.309 432.532 867.006 450.379C879.484 425.609 889.713 399.686 902.667 375.147C896.894 372.271 891.514 368.722 886.072 365.275C886.043 360.981 884.478 351.449 886.783 347.881C888.635 345.014 890.826 344.988 893.868 344.197C897.221 344.768 900.249 345.042 903.65 344.912L976.531 344.919L999.733 364.356C992.549 371.1 985.96 376.303 977.149 380.743L872.594 604.551C857.811 636.318 842.675 667.775 827.29 699.254C822.364 709.331 818.157 719.893 812.949 729.797Q677.59 693.151 541.375 659.83C564.147 633.722 588.843 608.977 610.275 581.754C586.553 567.56 563.395 566.026 536.424 567.969C540.32 558.78 545.423 550.047 548.616 540.591C534.669 550.947 522.567 565.442 510.416 577.823C502.84 585.543 494.259 592.933 487.324 601.204C476.492 591.207 466.51 580.373 456.565 569.504Q440.973 583.754 425.049 597.632C414.55 588.188 369.773 541.555 363.423 538.273L360.5 537.57C359.216 554.976 360.887 573.749 360.884 591.309C360.881 611.7 358.898 642.661 361.49 662.063C373.4 679.729 383.458 698.669 394.435 716.918L228.467 716.933C239.757 697.783 256.976 680.378 265.114 659.769C266.89 655.272 267.451 650.667 267.781 645.877C268.929 629.22 267.917 611.904 267.87 595.171Q267.411 539.424 267.948 483.679C252.732 492.277 237.514 499.918 221.079 505.974C220.654 544.879 221.431 583.88 221.666 622.792Q233.152 639.883 246.393 655.654C224.205 669.592 200.118 684.538 181.592 703.228C157.49 680.482 134.033 661.438 103.59 647.36C106.734 644.431 109.927 641.528 112.91 638.435C119.802 631.29 127.002 621.569 129.639 611.863C134.693 593.261 131.526 511.417 131.274 489.153C123.428 488.388 115.396 487.45 107.763 485.447C88.4407 480.376 71.0311 468.015 60.9665 450.616C53.3093 437.378 48.9384 419.538 53.066 404.511C55.6077 395.258 61.5542 387.171 69.982 382.469Q70.6581 382.088 71.3524 381.741Q72.0467 381.394 72.7576 381.083Q73.4685 380.772 74.194 380.496Q74.9196 380.221 75.6581 379.982Q76.3966 379.744 77.1461 379.542Q77.8956 379.341 78.6543 379.178Q79.413 379.014 80.1789 378.889Q80.9448 378.764 81.7161 378.677Q82.4873 378.59 83.2619 378.543Q84.0365 378.495 84.8126 378.486Q85.5886 378.477 86.3641 378.507Q87.1396 378.537 87.9126 378.606Q88.6856 378.675 89.4542 378.783Q90.2228 378.89 90.985 379.036Q91.7473 379.182 92.5012 379.366Q93.2551 379.55 93.9989 379.772C108.848 384.068 116.478 396.862 123.328 409.572C120.472 411.585 117.437 413.613 115.36 416.476Q114.971 417.005 114.639 417.571Q114.308 418.138 114.036 418.736Q113.765 419.334 113.557 419.956Q113.349 420.579 113.207 421.22Q113.065 421.861 112.99 422.513Q112.915 423.165 112.907 423.822Q112.9 424.478 112.961 425.132Q113.023 425.785 113.151 426.429C114.739 434.728 123.925 440.967 130.518 445.397Q130.411 352.785 131.689 260.184C120.475 243.131 109.034 226.342 98.208 209.021C140.913 208 183.228 210.336 225.99 207.38C233.305 215.833 240.822 223.964 249.729 230.768C240.222 240.548 230.201 249.884 220.378 259.349C222.713 281.441 221.599 304.543 221.632 326.779L221.703 440.459C237.686 434.357 252.929 423.945 267.389 414.864C266.713 380.002 267.104 345.007 267.318 310.138C267.431 291.724 270.396 240.286 265.643 225.814C260.649 210.612 247.321 196.861 237.973 184.051ZM262.088 193.983C268.257 203.455 272.492 213.995 279.05 223.261C279.105 288.369 280.216 353.365 279.03 418.483C278.932 418.576 278.836 418.671 278.736 418.763C253.442 442.226 217.409 454.957 183.151 454.065L183.083 241.888L201.653 221.927L121.044 221.988C128.282 231.304 135.129 240.879 141.985 250.477L142.191 372.058C142.05 402.166 139.369 433.087 144.776 462.846C134.861 460.682 124.905 458.605 115.551 454.551C101.726 448.558 89.4984 437.794 84.0737 423.464C73.2015 394.743 91.1784 396.79 94.582 389.137C94.0554 388.887 93.29 388.462 92.6893 388.374C87.924 387.67 78.0675 392.037 74.4108 395.055C68.822 399.667 65.172 405.95 64.5503 413.22C63.4294 426.328 70.5941 439.308 78.7733 449.083C95.7224 469.339 116.85 474.857 142.155 477.026L142.272 560.414C142.39 579.307 145.379 600.828 140.793 619.214C138.608 627.973 132.837 635.687 127.96 643.123C143.469 652.155 157.802 662.386 172.233 673.017C180.505 662.791 188.497 653.998 199.195 646.253C194.071 637.983 188.449 629.967 183.046 621.874C184.06 589.123 183.135 556.046 183.116 523.257C183.107 508.621 182.245 493.369 183.858 478.842C188.984 473.695 201.648 476.435 208.644 475.359C232.142 471.744 256.577 461.676 279.074 453.99L279.919 656.937C271.723 671.304 263.533 684.839 253.091 697.754C280.912 690.965 309.806 690.136 338.303 689.946C332.05 678.561 325.674 666.541 323.568 653.579C319.816 630.485 323.018 605.491 323.047 582.093L322.841 425.651Q343.082 413.984 364.042 403.665C366.648 405.95 370.072 408.539 371.746 411.639C373.065 414.083 372.367 415.756 371.62 418.184C371.704 420.81 372 423.616 371.63 426.217C375.363 430.031 374.299 438.25 374.244 443.171C373.924 472.158 371.698 501.469 374.2 530.391C385.851 543.852 398.83 556.062 411.529 568.519C429.864 554.346 448.796 541.311 468.163 528.592C467.564 538.03 464.449 556.458 470.514 564.035C473.019 564.881 474.051 565.024 476.463 563.728C483.981 559.688 500.373 542.063 508.193 535.349C506.445 532.131 504.904 529.099 504.545 525.409C502.164 500.895 504.03 469.31 504.042 444.193C504.059 408.894 502.576 373.251 504.153 338.006C508.273 337.058 512.482 336.237 516.47 334.821C505.186 314.062 472.903 284.31 455.902 266.509C427.234 282.153 403.028 300.028 380.171 323.404L399.803 343.51C409.732 329.338 427.935 313.603 445.567 310.684C449.605 310.016 453.767 310.712 457.054 313.242C463.277 318.032 465.651 327.073 466.493 334.497C469.089 357.396 461.364 410.177 468.548 427.34C465.903 426.774 463.169 426.228 460.628 425.291C447.613 420.492 442.368 405.72 437.078 394.115C411.089 395.004 390.151 392.169 367.813 378.538C352.551 385.018 339.684 395.091 323.413 399.396C321.119 378.584 322.02 356.972 322.054 336.063L323.02 222.965C332.192 213.097 341.074 202.901 351.198 193.983Q306.643 194.424 262.088 193.983ZM627.844 329.821C625.668 334.146 625.191 338.67 624.933 343.435C623.739 365.539 625.503 388.07 625.747 410.217L626.175 530.452C643.762 549.66 663.342 568 679.655 588.245Q654.615 615.379 630.035 642.931C676.1 646.951 722.265 651.196 768.407 654.166C786.152 615.578 807.152 578.168 826.027 540.082C816.709 514.531 807.232 488.838 799.035 462.909C791.374 442.478 784.549 417.604 772.045 399.722C772.595 436.1 771.807 472.441 772.017 508.811Q780.249 519.914 789.937 529.774C771.847 546.703 753.991 564.86 738.623 584.311C722.6 562.18 700.486 538.538 675.959 526.108Q685.393 517.13 694.199 507.535C694.039 460.869 692.768 413.875 694.037 367.244C676.034 378.621 660.64 390.609 646.384 406.498C639.497 397.637 632.766 388.936 627.298 379.089C631.881 369.692 637.305 360.272 641.335 350.679C638.509 343.858 634.987 332.974 627.844 329.821ZM361.49 662.063C358.898 642.661 360.881 611.7 360.884 591.309C360.887 573.749 359.216 554.976 360.5 537.57L363.423 538.273C362.254 520.898 365.931 442.375 361.444 434.219L360.168 434.379C358.578 437.178 358.453 440.325 358.293 443.473C355.665 495.196 357.651 547.62 357.735 599.433C357.752 610.505 355.839 648.665 358.347 657.444C358.888 659.339 360.144 660.682 361.49 662.063ZM685.668 282.252C685.704 292.136 683.747 340.113 689.191 345.254C690.528 346.517 691.987 347.216 693.711 347.772Q693.627 318.926 692.698 290.095C690.716 287.321 688.747 283.869 685.668 282.252ZM775.369 305.429C773.478 313.983 772.274 322.678 770.954 331.335L782.759 332.673L784.381 331.865C784.205 324.002 780.312 314.526 777.561 307.128C776.874 306.561 776.159 305.833 775.369 305.429Z"/>
	<path fill="#BE434F" transform="scale(0.600124 0.600124)" d="M458.821 539.834L459.73 540.514C460.273 543.596 458.514 547.066 456.875 549.705C452.055 557.466 434.135 577.137 425.115 578.69C422.864 579.077 422.431 578.444 420.601 577.245C418.562 575.547 416.871 573.778 415.135 571.784L415.635 570.621L416.402 570.997L418.033 570.216L417.593 569.061Q438.322 554.61 458.821 539.834Z"/>
	<path fill="#BE434F" transform="scale(0.600124 0.600124)" d="M681.863 344.836L691.187 353.815C675.578 365.247 661.094 376.016 648.739 391.103C644.739 387.704 641.687 383.016 638.526 378.85C653.433 368.067 668.62 357.676 681.863 344.836Z"/>
	<path fill="#BE434F" transform="scale(0.600124 0.600124)" d="M440.218 316.92C447.05 317.896 453.973 321.261 460.246 323.981C445.294 330.616 431.518 338.139 418.11 347.532L410.563 353.584L403.832 344.896C412.663 331.52 426.373 324.098 440.218 316.92Z"/>
	<path fill="#BE434F" transform="scale(0.600124 0.600124)" d="M95.357 394.765C103.167 395.035 107.719 398.984 113.163 404.025C109.291 406.198 105.849 408.194 103.548 412.12C101.368 415.838 100.872 419.908 101.957 424.067C105.529 437.75 120.92 447.283 132.355 453.894L132.641 454.494L131.636 455.569C117.852 452.902 103.111 443.532 94.7202 432.485C89.296 425.344 84.8589 416.203 86.2475 407.011C87.1466 401.059 90.6738 398.094 95.357 394.765Z"/>
	<path fill="#F7EFEF" fill-opacity="0.043137256" transform="scale(0.600124 0.600124)" d="M361.49 662.063C360.144 660.682 358.888 659.339 358.347 657.444C355.839 648.665 357.752 610.505 357.735 599.433C357.651 547.62 355.665 495.196 358.293 443.473C358.453 440.325 358.578 437.178 360.168 434.379L361.444 434.219C365.931 442.375 362.254 520.898 363.423 538.273L360.5 537.57C359.216 554.976 360.887 573.749 360.884 591.309C360.881 611.7 358.898 642.661 361.49 662.063Z"/>
	<path fill="#461446" transform="scale(0.600124 0.600124)" d="M640.529 571.855C644.228 573.857 647.701 576.626 651.157 579.033Q620.171 612.63 588.671 645.745L576.189 648.886C572.789 649.972 569.116 650.616 565.633 651.436C588.309 623.885 612.697 594.273 640.529 571.855Z"/>
	<path fill="#BE434F" transform="scale(0.600124 0.600124)" d="M838.451 372.725C842.25 374.017 847.64 381.229 850.59 384.258C847.575 387.295 844.075 389.782 840.666 392.352C847.826 416.145 853.261 440.239 861.432 463.751C857.986 470.027 855.04 476.615 851.968 483.082C849.707 476.471 847.86 469.668 845.858 462.97C839.241 439.099 832.389 415.546 824.015 392.214C830.067 388.508 835.722 384.776 841.15 380.194C831.537 383.456 823.277 389.235 813.313 391.743C819.66 383.856 830.037 378.258 838.451 372.725Z"/>
	<path fill="#461446" transform="scale(0.600124 0.600124)" d="M796.928 258.897C805.665 268.467 815.474 315.538 820.34 330.759Q807.097 340.063 793.565 348.94C792.654 349.935 791.459 350.24 790.227 350.687L789.765 349.355C791.321 344.217 794.062 339.833 796.768 335.242C791.844 317.2 787.64 298.082 780.237 280.908C785.552 273.347 791.166 266.115 796.928 258.897Z"/>
	<path fill="#461446" transform="scale(0.600124 0.600124)" d="M651.584 271.542C653.962 273.588 674.53 335.102 677.322 343.787C665.878 352.744 654.447 361.655 642.601 370.077L641.183 370.739C639.887 366.684 650.125 349.57 652.432 345.03C643.527 329.876 637.581 311.777 630.901 295.53C638.46 288.165 645.002 279.77 651.584 271.542Z"/>
	<path fill="#BE434F" transform="scale(0.600124 0.600124)" d="M517.946 337.944L519.415 337.892C522.043 339.243 524.094 341.474 526.121 343.594C528.499 346.08 530.76 348.753 530.676 352.373C528.623 355.977 524.366 358.529 521.1 361.004Q521.761 408.505 521.472 456.009C521.333 474.701 519.032 495.118 522.016 513.541C523.578 523.18 526.899 530.274 531.931 538.561C518.836 551.848 505.984 565.382 492.409 578.183C490.498 580.074 489.619 581.29 486.965 581.997C482.067 580.476 477.855 574.533 474.326 570.835C487.373 559.042 500.496 547.691 513.024 535.309C509.938 528.428 509.055 521.769 508.518 514.328C507.079 494.377 508.728 474.003 508.811 454.002L508.412 342.339L517.946 337.944Z"/>
	<path fill="#BE434F" transform="scale(0.600124 0.600124)" d="M366.704 189.892C370.093 192.527 371.892 196.632 373.903 200.334C362.113 207.905 354.816 216.536 347.006 228.097L347.005 380.148C342.358 383.039 337.289 385.52 332.479 388.147C331.299 388.76 330.468 388.71 329.174 388.77C326.99 386.411 327.01 382.584 326.862 379.519C326.162 364.984 327.485 349.975 327.506 335.37L327.489 225.148C339.476 211.925 352.307 200.434 366.704 189.892Z"/>
	<path fill="#BE434F" transform="scale(0.600124 0.600124)" d="M271.48 462.073C272.84 462.15 273.232 462.568 274.344 463.316C274.194 464.072 274.192 464.324 273.906 464.986C269.116 476.038 231.42 491.18 219.768 496.32L210.092 494.082Q210.712 527.447 210.662 560.818C210.588 580.362 207.169 605.781 212.213 624.324C215.09 634.897 222.102 644.058 229.263 652.122C212.838 661.127 197.656 671.073 184.268 684.272L182.936 684.447C179.65 681.903 177.678 677.559 175.616 674.009C184.838 664.023 193.236 654.595 204.813 647.272C198.752 638.771 193.433 629.768 188 620.859C188.22 574.453 186.435 528.022 188.216 481.626C220.798 479.19 240.964 470.866 271.48 462.073Z"/>
	<path fill="#BE434F" transform="scale(0.600124 0.600124)" d="M218.866 212.627C223.416 214.851 229.399 223.842 232.901 227.888C225.409 235.655 217.91 243.332 210.005 250.685C210.03 290.483 209.647 330.329 210.132 370.12C210.406 392.588 213.817 423.913 209.557 445.485C207.541 447.781 204.726 448.137 201.877 448.862L188.209 449.92C186.591 405.961 186.802 361.828 187.129 317.847C187.312 293.153 186.483 267.677 188.656 243.108C198.358 232.642 208.771 222.72 218.866 212.627Z"/>
	<path fill="#BE434F" transform="scale(0.600124 0.600124)" d="M363.43 409.474L371.62 418.184C371.704 420.81 372 423.616 371.63 426.217C368.667 424.07 365.946 421.41 363.194 418.991C357.65 421.321 352.291 423.665 347.063 426.655L347.015 662.36L372.598 704.853Q336.579 704.336 300.557 704.191C284.135 704.11 267.482 704.643 251.125 703.074C280.504 691.962 314.223 695.813 345.021 693.441C338.476 681.908 330.932 669.832 328.455 656.606C324.074 633.22 327.34 606.569 327.347 582.722L327.089 428.62C338.511 421.12 351.123 415.351 363.43 409.474Z"/>
	<path fill="#BE434F" transform="scale(0.600124 0.600124)" d="M754.13 303.187C768.293 279.547 786.286 257.903 802.966 235.991C816.267 266.027 830.188 296.025 842.111 326.64C827.538 337.711 814.957 351.223 802.251 364.322L789.915 355.672Q807.19 344.205 823.955 332.003C816.802 304.456 809.94 276.968 799.853 250.32C784.114 269.054 767.673 285.755 763.914 310.903C762.476 320.52 762.21 330.33 760.955 339.989L771.755 343.337C770.185 347.546 767.321 353.713 768.575 358.151L763.645 360.467C759.847 366.109 761.091 497.36 761.072 515.081C765.22 519.888 769.783 524.435 774.129 529.07C764.807 537.778 756.443 547.457 747.49 556.535C744.646 559.42 741.468 563.178 737.221 563.214L736.372 561.247C737.578 547.353 745.127 536.309 754.162 526.213C748.484 521.24 742.533 516.519 736.73 511.689C739.448 509.096 742.316 506.631 745.105 504.113C742.809 486.588 743.603 468.425 743.81 450.79Q744.107 421.718 744.067 392.645L744.017 302.65C743.983 289.806 742.999 276.657 743.603 263.864C743.829 259.091 744.296 252.312 747.174 248.352L748.269 248.661C753.721 258.375 753.678 290.728 754.13 303.187Z"/>
	<path fill="#BE434F" transform="scale(0.600124 0.600124)" d="M653.955 249.823C662.895 259.595 671.594 269.337 679.848 279.7C680.071 300.88 680.119 322.168 682.199 343.264C670.439 316.835 665.605 287.923 653.107 261.811C644.061 273.168 635.019 284.382 625.488 295.343C627.586 301.41 631.454 306.484 633.256 312.676C628.47 317.606 624.237 311.532 615.981 323.252C616.007 393.13 618.969 463.696 614.988 533.463C632.002 550.997 648.643 569.12 665.967 586.309C658.66 593.86 615.486 643.026 611.341 644.723C610.651 645.006 609.051 644.925 608.25 644.995L594.246 645.359C604.238 635.367 654.064 587.006 654.862 577.284C646.85 568.225 628.484 557.501 617.954 549.842C623.166 558.025 629.696 563.309 637.178 569.27C634.152 572.357 630.771 575.17 627.552 578.058C615.393 565.589 603.668 552.064 588.297 543.504C593.122 540.196 597.75 536.608 602.415 533.08C601.245 530.09 600.385 527.273 600.156 524.055C598.295 497.912 600.071 470.466 600.064 444.192L599.825 279.746C603.237 274.347 606.068 268.638 608.974 262.958Q609.158 288.6 608.087 314.22C623.531 292.864 638.381 271.101 653.955 249.823Z"/>
	<path fill="#BE434F" transform="scale(0.600124 0.600124)" d="M960.185 353.607C969.613 353.058 977.195 359.78 984.275 365.063C979.442 367.107 974.339 368.682 969.386 370.422Q888.78 542.445 805.061 712.975C746.349 695.579 685.006 681.751 625.259 668.259Q611.497 665.071 597.782 661.686L597.274 660.587L597.647 661.478L595.964 660.894L596.679 660.185C630.285 664.007 663.745 671.25 696.961 677.555C729.915 683.81 763.163 689.299 795.89 696.647C809.484 671.728 821.326 645.608 833.724 620.073Q872.01 541.79 908.095 462.469C924.739 426.264 940.348 388.146 960.185 353.607Z"/>
	<path fill="#461446" transform="scale(0.600124 0.600124)" d="M611.758 244.807C612.558 245.56 612.554 246.359 612.812 247.403C609.632 258.826 601.375 269.918 595.118 279.922C594.892 364.173 593.443 448.668 595.951 532.879L582.942 543.237C593.487 550.591 602.996 559.057 612.279 567.921C599.754 563.123 587.443 558.736 574.221 556.196C568.042 555.707 561.745 555.977 555.547 556.012C559.829 545.535 563.748 535.871 564.541 524.433C566.505 496.102 564.941 467.001 564.875 438.56C564.797 405.362 568.911 355.128 560.844 323.947C557.54 311.174 550.585 301.151 542.057 291.314C568.079 279.489 590.74 264.104 611.758 244.807Z"/>
	<path fill="#461446" transform="scale(0.600124 0.600124)" d="M737.985 255.39C742.162 260.442 740.05 480.788 740.005 503.592L729.775 512.933C736.205 517.12 742.319 521.972 748.504 526.522C740.857 535.582 736.812 545.681 733.131 556.804L721.774 544.241C713.951 536.179 704.848 529.533 695.764 522.987Q700.918 516.679 705.926 510.254L705.994 284.296C703.723 282.259 701.215 280.413 698.822 278.516C712.132 271.386 725.035 263.162 737.985 255.39Z"/>
	<path fill="#461446" transform="scale(0.600124 0.600124)" d="M898.207 355.311Q926.582 356.069 954.961 355.493Q902.305 464.782 850.956 574.693C832.243 614.141 814.102 653.982 793.097 692.277C728.523 676.009 661.686 668.121 596.338 655.484C631.164 652.626 667.173 657.978 701.762 661.743L776.002 668.582C794.8 625.335 817.072 583.82 839.357 542.304C827.902 512.009 818.148 480.944 807.093 450.469C801.071 433.867 795.583 416.942 786.712 401.592C795.223 397.885 803.432 393.509 811.682 389.261L821.091 393.686Q838.322 451.065 854.54 508.739L918.296 371.439C910.783 366.875 903.188 362.808 898.207 355.311Z"/>
	<path fill="#461446" transform="scale(0.600124 0.600124)" d="M262.088 193.983Q306.643 194.424 351.198 193.983C341.074 202.901 332.192 213.097 323.02 222.965L322.054 336.063C322.02 356.972 321.119 378.584 323.413 399.396C339.684 395.091 352.551 385.018 367.813 378.538C390.151 392.169 411.089 395.004 437.078 394.115C442.368 405.72 447.613 420.492 460.628 425.291C463.169 426.228 465.903 426.774 468.548 427.34C461.364 410.177 469.089 357.396 466.493 334.497C465.651 327.073 463.277 318.032 457.054 313.242C453.767 310.712 449.605 310.016 445.567 310.684C427.935 313.603 409.732 329.338 399.803 343.51L380.171 323.404C403.028 300.028 427.234 282.153 455.902 266.509C472.903 284.31 505.186 314.062 516.47 334.821C512.482 336.237 508.273 337.058 504.153 338.006C502.576 373.251 504.059 408.894 504.042 444.193C504.03 469.31 502.164 500.895 504.545 525.409C504.904 529.099 506.445 532.131 508.193 535.349C500.373 542.063 483.981 559.688 476.463 563.728C474.051 565.024 473.019 564.881 470.514 564.035C464.449 556.458 467.564 538.03 468.163 528.592C448.796 541.311 429.864 554.346 411.529 568.519C398.83 556.062 385.851 543.852 374.2 530.391C371.698 501.469 373.924 472.158 374.244 443.171C374.299 438.25 375.363 430.031 371.63 426.217C372 423.616 371.704 420.81 371.62 418.184C372.367 415.756 373.065 414.083 371.746 411.639C370.072 408.539 366.648 405.95 364.042 403.665Q343.082 413.984 322.841 425.651L323.047 582.093C323.018 605.491 319.816 630.485 323.568 653.579C325.674 666.541 332.05 678.561 338.303 689.946C309.806 690.136 280.912 690.965 253.091 697.754C263.533 684.839 271.723 671.304 279.919 656.937L279.074 453.99C256.577 461.676 232.142 471.744 208.644 475.359C201.648 476.435 188.984 473.695 183.858 478.842C182.245 493.369 183.107 508.621 183.116 523.257C183.135 556.046 184.06 589.123 183.046 621.874C188.449 629.967 194.071 637.983 199.195 646.253C188.497 653.998 180.505 662.791 172.233 673.017C157.802 662.386 143.469 652.155 127.96 643.123C132.837 635.687 138.608 627.973 140.793 619.214C145.379 600.828 142.39 579.307 142.272 560.414L142.155 477.026C116.85 474.857 95.7224 469.339 78.7733 449.083C70.5941 439.308 63.4294 426.328 64.5503 413.22C65.172 405.95 68.822 399.667 74.4108 395.055C78.0675 392.037 87.924 387.67 92.6893 388.374C93.29 388.462 94.0554 388.887 94.582 389.137C91.1784 396.79 73.2015 394.743 84.0737 423.464C89.4984 437.794 101.726 448.558 115.551 454.551C124.905 458.605 134.861 460.682 144.776 462.846C139.369 433.087 142.05 402.166 142.191 372.058L141.985 250.477C135.129 240.879 128.282 231.304 121.044 221.988L201.653 221.927L183.083 241.888L183.151 454.065C217.409 454.957 253.442 442.226 278.736 418.763C278.836 418.671 278.932 418.576 279.03 418.483C280.216 353.365 279.105 288.369 279.05 223.261C272.492 213.995 268.257 203.455 262.088 193.983ZM408.065 405.299L408.165 495.25C408.358 503.9 408.798 512.558 409.125 521.205C411.518 524.52 413.905 527.755 416.616 530.817C433.084 526.144 450.275 525.3 466.514 519.438C466.09 497.707 465.418 475.769 465.967 454.039C466.192 445.124 468.716 436.214 468.548 427.34C463.574 431.373 460.79 435.793 458.04 441.476C444.77 432.479 434.889 419.501 424.887 407.183L408.065 405.299Z"/>
	<path fill="#040100" transform="scale(0.600124 0.600124)" d="M408.065 405.299L424.887 407.183C434.889 419.501 444.77 432.479 458.04 441.476C460.79 435.793 463.574 431.373 468.548 427.34C468.716 436.214 466.192 445.124 465.967 454.039C465.418 475.769 466.09 497.707 466.514 519.438C450.275 525.3 433.084 526.144 416.616 530.817C413.905 527.755 411.518 524.52 409.125 521.205C408.798 512.558 408.358 503.9 408.165 495.25L408.065 405.299ZM436.181 430.721L434.21 433.668C436.798 437.745 444.098 442.668 444.62 447.321C443.563 448.127 442.359 448.945 441.425 449.89C441.051 450.268 439.871 451.482 439.735 452.006C437.814 459.448 439.562 502.058 439.627 512.8L454.53 511.83L454.229 449.072Q445.287 439.816 436.181 430.721Z"/>
	<path fill="#BE434F" transform="scale(0.600124 0.600124)" d="M413 517.949C412.992 504.003 411.284 416.21 413.958 411.194C415.097 410.609 415.654 410.035 416.974 410.284C424.006 411.608 432.652 424.835 436.181 430.721L434.21 433.668C434.128 433.644 434.05 433.606 433.965 433.596C431.73 433.337 431.496 433.694 429.909 435.134C424.382 449.318 428.156 506.289 429.201 523.449L418.418 525.534L413 517.949Z"/>
</svg>
