<?xml version="1.0" encoding="us-ascii" standalone="no"?><svg xmlns="http://www.w3.org/2000/svg" xmlns:xlink="http://www.w3.org/1999/xlink" contentStyleType="text/css" height="1589px" preserveAspectRatio="none" style="width:1135px;height:1589px;background:#FFFFFF;" version="1.1" viewBox="0 0 1135 1589" width="1135px" zoomAndPan="magnify"><defs/><g><text fill="#000000" font-family="sans-serif" font-size="14" font-weight="bold" lengthAdjust="spacing" textLength="409" x="361.5" y="33.5352">Harry Potter Trivia Game Flow (List[Question] Approach)</text><ellipse cx="537" cy="57.4883" fill="#222222" rx="10" ry="10" style="stroke:#222222;stroke-width:1.0;"/><rect fill="none" height="219.1523" style="stroke:#000000;stroke-width:1.5;" width="189" x="442.5" y="77.4883"/><path d="M528.5,77.4883 L528.5,86.9766 L518.5,96.9766 L442.5,96.9766 " fill="none" style="stroke:#000000;stroke-width:1.5;"/><text fill="#000000" font-family="sans-serif" font-size="14" lengthAdjust="spacing" textLength="76" x="445.5" y="92.0234">Main Script</text><rect fill="#F1F1F1" height="48.2656" rx="12.5" ry="12.5" style="stroke:#181818;stroke-width:0.5;" width="145" x="464.5" y="113.9766"/><text fill="#000000" font-family="sans-serif" font-size="12" lengthAdjust="spacing" textLength="125" x="474.5" y="135.5781">Create Trivia instance</text><text fill="#000000" font-family="sans-serif" font-size="12" lengthAdjust="spacing" textLength="112" x="474.5" y="149.7109">(pass csv_filename)</text><rect fill="#F1F1F1" height="34.1328" rx="12.5" ry="12.5" style="stroke:#181818;stroke-width:0.5;" width="148" x="463" y="182.2422"/><text fill="#000000" font-family="sans-serif" font-size="12" lengthAdjust="spacing" textLength="128" x="473" y="203.8438">Create Player instance</text><rect fill="#F1F1F1" height="48.2656" rx="12.5" ry="12.5" style="stroke:#181818;stroke-width:0.5;" width="169" x="452.5" y="236.375"/><text fill="#000000" font-family="sans-serif" font-size="12" lengthAdjust="spacing" textLength="149" x="462.5" y="257.9766">Create Controller instance</text><text fill="#000000" font-family="sans-serif" font-size="12" lengthAdjust="spacing" textLength="114" x="462.5" y="272.1094">(pass Trivia, Player)</text><rect fill="none" height="82.6211" style="stroke:#000000;stroke-width:1.5;" width="188" x="443" y="306.6406"/><path d="M523,306.6406 L523,316.1289 L513,326.1289 L443,326.1289 " fill="none" style="stroke:#000000;stroke-width:1.5;"/><text fill="#000000" font-family="sans-serif" font-size="14" lengthAdjust="spacing" textLength="70" x="446" y="321.1758">Controller</text><rect fill="#F1F1F1" height="34.1328" rx="12.5" ry="12.5" style="stroke:#181818;stroke-width:0.5;" width="168" x="453" y="343.1289"/><text fill="#000000" font-family="sans-serif" font-size="12" lengthAdjust="spacing" textLength="148" x="463" y="364.7305">Call trivia_manager.start()</text><rect fill="none" height="330.6836" style="stroke:#000000;stroke-width:1.5;" width="693" x="431" y="399.2617"/><path d="M479,399.2617 L479,408.75 L469,418.75 L431,418.75 " fill="none" style="stroke:#000000;stroke-width:1.5;"/><text fill="#000000" font-family="sans-serif" font-size="14" lengthAdjust="spacing" textLength="38" x="434" y="413.7969">Trivia</text><path d="M934,564.1924 L934,589.5029 L1104,589.5029 L1104,574.1924 L1094,564.1924 L934,564.1924 " fill="#FEFFDD" style="stroke:#181818;stroke-width:0.5;"/><path d="M1094,564.1924 L1094,574.1924 L1104,574.1924 L1094,564.1924 " fill="#FEFFDD" style="stroke:#181818;stroke-width:0.5;"/><text fill="#000000" font-family="sans-serif" font-size="13" lengthAdjust="spacing" textLength="149" x="940" y="581.7607">Executes start() method</text><rect fill="#F1F1F1" height="48.2656" rx="12.5" ry="12.5" style="stroke:#181818;stroke-width:0.5;" width="158" x="458" y="435.75"/><text fill="#000000" font-family="sans-serif" font-size="12" lengthAdjust="spacing" textLength="88" x="468" y="457.3516">_load_dataset()</text><text fill="#000000" font-family="sans-serif" font-size="12" lengthAdjust="spacing" textLength="138" x="468" y="471.4844">Read CSV to DataFrame</text><rect fill="#F1F1F1" height="48.2656" rx="12.5" ry="12.5" style="stroke:#181818;stroke-width:0.5;" width="129" x="472.5" y="504.0156"/><text fill="#000000" font-family="sans-serif" font-size="12" lengthAdjust="spacing" textLength="100" x="482.5" y="525.6172">_load_questions()</text><text fill="#000000" font-family="sans-serif" font-size="12" lengthAdjust="spacing" textLength="109" x="482.5" y="539.75">Sample DataFrame</text><rect fill="#F1F1F1" height="48.2656" rx="12.5" ry="12.5" style="stroke:#181818;stroke-width:0.5;" width="151" x="461.5" y="587.2813"/><text fill="#000000" font-family="sans-serif" font-size="12" lengthAdjust="spacing" textLength="100" x="471.5" y="608.8828">_load_questions()</text><text fill="#000000" font-family="sans-serif" font-size="12" lengthAdjust="spacing" textLength="131" x="471.5" y="623.0156">Convert DF to List[Dict]</text><path d="M653,674.0908 L653,682.7461 L633,686.7461 L653,690.7461 L653,699.4014 A0,0 0 0 0 653,699.4014 L924,699.4014 A0,0 0 0 0 924,699.4014 L924,684.0908 L914,674.0908 L653,674.0908 A0,0 0 0 0 653,674.0908 " fill="#FEFFDD" style="stroke:#181818;stroke-width:0.5;"/><path d="M914,674.0908 L914,684.0908 L924,684.0908 L914,674.0908 " fill="#FEFFDD" style="stroke:#181818;stroke-width:0.5;"/><text fill="#000000" font-family="sans-serif" font-size="13" lengthAdjust="spacing" textLength="250" x="659" y="691.6592">self.questions now holds List[Question]</text><rect fill="#F1F1F1" height="62.3984" rx="12.5" ry="12.5" style="stroke:#181818;stroke-width:0.5;" width="192" x="441" y="655.5469"/><text fill="#000000" font-family="sans-serif" font-size="12" lengthAdjust="spacing" textLength="153" x="451" y="677.1484">_create_question_objects()</text><text fill="#000000" font-family="sans-serif" font-size="12" lengthAdjust="spacing" textLength="172" x="451" y="691.2813">Convert Dicts to List[Question]</text><text fill="#000000" font-family="sans-serif" font-size="12" lengthAdjust="spacing" textLength="94" x="451" y="705.4141">(incl. session_id)</text><rect fill="none" height="796.1045" style="stroke:#000000;stroke-width:1.5;" width="962" x="11" y="739.9453"/><path d="M91,739.9453 L91,749.4336 L81,759.4336 L11,759.4336 " fill="none" style="stroke:#000000;stroke-width:1.5;"/><text fill="#000000" font-family="sans-serif" font-size="14" lengthAdjust="spacing" textLength="70" x="14" y="754.4805">Controller</text><rect fill="#F1F1F1" height="34.1328" rx="12.5" ry="12.5" style="stroke:#181818;stroke-width:0.5;" width="269" x="402.5" y="776.4336"/><text fill="#000000" font-family="sans-serif" font-size="12" lengthAdjust="spacing" textLength="249" x="412.5" y="798.0352">Call trivia_manager.get_session_questions()</text><rect fill="#F1F1F1" height="34.1328" rx="12.5" ry="12.5" style="stroke:#181818;stroke-width:0.5;" width="180" x="447" y="830.5664"/><text fill="#000000" font-family="sans-serif" font-size="12" lengthAdjust="spacing" textLength="160" x="457" y="852.168">Receive/Store List[Question]</text><rect fill="#F1F1F1" height="34.1328" rx="12.5" ry="12.5" style="stroke:#181818;stroke-width:0.5;" width="128" x="473" y="884.6992"/><text fill="#000000" font-family="sans-serif" font-size="12" lengthAdjust="spacing" textLength="108" x="483" y="906.3008">Initialize Score = 0</text><rect fill="none" height="462.9502" style="stroke:#000000;stroke-width:1.5;" width="903" x="39" y="984.9668"/><path d="M153,984.9668 L153,994.4551 L143,1004.4551 L39,1004.4551 " fill="none" style="stroke:#000000;stroke-width:1.5;"/><text fill="#000000" font-family="sans-serif" font-size="14" lengthAdjust="spacing" textLength="104" x="42" y="999.502">Gameplay Turn</text><path d="M647.5,1025.8662 L647.5,1034.5215 L627.5,1038.5215 L647.5,1042.5215 L647.5,1051.1768 A0,0 0 0 0 647.5,1051.1768 L857.5,1051.1768 A0,0 0 0 0 857.5,1051.1768 L857.5,1035.8662 L847.5,1025.8662 L647.5,1025.8662 A0,0 0 0 0 647.5,1025.8662 " fill="#FEFFDD" style="stroke:#181818;stroke-width:0.5;"/><path d="M847.5,1025.8662 L847.5,1035.8662 L857.5,1035.8662 L847.5,1025.8662 " fill="#FEFFDD" style="stroke:#181818;stroke-width:0.5;"/><text fill="#000000" font-family="sans-serif" font-size="13" lengthAdjust="spacing" textLength="189" x="653.5" y="1043.4346">Accessing object from the list</text><rect fill="#F1F1F1" height="34.1328" rx="12.5" ry="12.5" style="stroke:#181818;stroke-width:0.5;" width="181" x="446.5" y="1021.4551"/><text fill="#000000" font-family="sans-serif" font-size="12" lengthAdjust="spacing" textLength="161" x="456.5" y="1043.0566">Get current Question Object</text><path d="M721,1087.0654 L721,1095.7207 L701,1099.7207 L721,1103.7207 L721,1112.376 A0,0 0 0 0 721,1112.376 L932,1112.376 A0,0 0 0 0 932,1112.376 L932,1097.0654 L922,1087.0654 L721,1087.0654 A0,0 0 0 0 721,1087.0654 " fill="#FEFFDD" style="stroke:#181818;stroke-width:0.5;"/><path d="M922,1087.0654 L922,1097.0654 L932,1097.0654 L922,1087.0654 " fill="#FEFFDD" style="stroke:#181818;stroke-width:0.5;"/><text fill="#000000" font-family="sans-serif" font-size="13" lengthAdjust="spacing" textLength="190" x="727" y="1104.6338">Interaction with View/Console</text><rect fill="#F1F1F1" height="48.2656" rx="12.5" ry="12.5" style="stroke:#181818;stroke-width:0.5;" width="328" x="373" y="1075.5879"/><text fill="#000000" font-family="sans-serif" font-size="12" lengthAdjust="spacing" textLength="104" x="383" y="1097.1895">"Display Question"</text><text fill="#000000" font-family="sans-serif" font-size="12" lengthAdjust="spacing" textLength="308" x="383" y="1111.3223">(using Q_Object.session_id &amp; Q_Object.question_text)</text><path d="M243.5,1148.2646 L243.5,1173.5752 A0,0 0 0 0 243.5,1173.5752 L454.5,1173.5752 A0,0 0 0 0 454.5,1173.5752 L454.5,1166.2646 L474.5,1160.9199 L454.5,1158.2646 L454.5,1158.2646 L444.5,1148.2646 L243.5,1148.2646 A0,0 0 0 0 243.5,1148.2646 " fill="#FEFFDD" style="stroke:#181818;stroke-width:0.5;"/><path d="M444.5,1148.2646 L444.5,1158.2646 L454.5,1158.2646 L444.5,1148.2646 " fill="#FEFFDD" style="stroke:#181818;stroke-width:0.5;"/><text fill="#000000" font-family="sans-serif" font-size="13" lengthAdjust="spacing" textLength="190" x="249.5" y="1165.833">Interaction with View/Console</text><rect fill="#F1F1F1" height="34.1328" rx="12.5" ry="12.5" style="stroke:#181818;stroke-width:0.5;" width="125" x="474.5" y="1143.8535"/><text fill="#000000" font-family="sans-serif" font-size="12" lengthAdjust="spacing" textLength="105" x="484.5" y="1165.4551">Get Player Answer</text><path d="M690,1208.0303 L690,1224.3408 L670,1228.3408 L690,1232.3408 L690,1248.6514 A0,0 0 0 0 690,1248.6514 L932,1248.6514 A0,0 0 0 0 932,1248.6514 L932,1218.0303 L922,1208.0303 L690,1208.0303 A0,0 0 0 0 690,1208.0303 " fill="#FEFFDD" style="stroke:#181818;stroke-width:0.5;"/><path d="M922,1208.0303 L922,1218.0303 L932,1218.0303 L922,1208.0303 " fill="#FEFFDD" style="stroke:#181818;stroke-width:0.5;"/><text fill="#000000" font-family="sans-serif" font-size="13" lengthAdjust="spacing" textLength="211" x="696" y="1225.5986">Calls method on Question object.</text><text fill="#000000" font-family="sans-serif" font-size="13" lengthAdjust="spacing" textLength="221" x="696" y="1240.9092">Object compares answer internally.</text><rect fill="#F1F1F1" height="34.1328" rx="12.5" ry="12.5" style="stroke:#181818;stroke-width:0.5;" width="266" x="404" y="1211.2744"/><text fill="#000000" font-family="sans-serif" font-size="12" lengthAdjust="spacing" textLength="246" x="414" y="1232.876">Call QuestionObject.check_answer(answer)</text><polygon fill="#F1F1F1" points="492.5,1268.6514,581.5,1268.6514,593.5,1280.6514,581.5,1292.6514,492.5,1292.6514,480.5,1280.6514,492.5,1268.6514" style="stroke:#181818;stroke-width:0.5;"/><text fill="#000000" font-family="sans-serif" font-size="11" lengthAdjust="spacing" textLength="89" x="492.5" y="1284.8086">Answer Correct?</text><text fill="#000000" font-family="sans-serif" font-size="11" lengthAdjust="spacing" textLength="19" x="461.5" y="1278.3311">Yes</text><text fill="#000000" font-family="sans-serif" font-size="11" lengthAdjust="spacing" textLength="15" x="593.5" y="1278.3311">No</text><path d="M51,1307.0625 L51,1332.373 A0,0 0 0 0 51,1332.373 L262,1332.373 A0,0 0 0 0 262,1332.373 L262,1325.0625 L282,1319.7178 L262,1317.0625 L262,1317.0625 L252,1307.0625 L51,1307.0625 A0,0 0 0 0 51,1307.0625 " fill="#FEFFDD" style="stroke:#181818;stroke-width:0.5;"/><path d="M252,1307.0625 L252,1317.0625 L262,1317.0625 L252,1307.0625 " fill="#FEFFDD" style="stroke:#181818;stroke-width:0.5;"/><text fill="#000000" font-family="sans-serif" font-size="13" lengthAdjust="spacing" textLength="190" x="57" y="1324.6309">Interaction with View/Console</text><rect fill="#F1F1F1" height="34.1328" rx="12.5" ry="12.5" style="stroke:#181818;stroke-width:0.5;" width="104" x="282" y="1302.6514"/><text fill="#000000" font-family="sans-serif" font-size="12" lengthAdjust="spacing" textLength="84" x="292" y="1324.2529">Print "Correct!"</text><rect fill="#F1F1F1" height="34.1328" rx="12.5" ry="12.5" style="stroke:#181818;stroke-width:0.5;" width="97" x="285.5" y="1371.7842"/><text fill="#000000" font-family="sans-serif" font-size="12" lengthAdjust="spacing" textLength="77" x="295.5" y="1393.3857">Update Score</text><path d="M406,1321.1953 L406,1346.5059 A0,0 0 0 0 406,1346.5059 L617,1346.5059 A0,0 0 0 0 617,1346.5059 L617,1339.1953 L637,1333.8506 L617,1331.1953 L617,1331.1953 L607,1321.1953 L406,1321.1953 A0,0 0 0 0 406,1321.1953 " fill="#FEFFDD" style="stroke:#181818;stroke-width:0.5;"/><path d="M607,1321.1953 L607,1331.1953 L617,1331.1953 L607,1321.1953 " fill="#FEFFDD" style="stroke:#181818;stroke-width:0.5;"/><text fill="#000000" font-family="sans-serif" font-size="13" lengthAdjust="spacing" textLength="190" x="412" y="1338.7637">Interaction with View/Console</text><rect fill="#F1F1F1" height="62.3984" rx="12.5" ry="12.5" style="stroke:#181818;stroke-width:0.5;" width="206" x="637" y="1302.6514"/><text fill="#000000" font-family="sans-serif" font-size="12" lengthAdjust="spacing" textLength="92" x="647" y="1324.2529">Print "Incorrect."</text><text fill="#000000" font-family="sans-serif" font-size="12" lengthAdjust="spacing" textLength="121" x="647" y="1338.3857">Show Correct Answer</text><text fill="#000000" font-family="sans-serif" font-size="12" lengthAdjust="spacing" textLength="186" x="647" y="1352.5186">(using Q_Object.correct_answer)</text><polygon fill="#F1F1F1" points="537,1411.917,549,1423.917,537,1435.917,525,1423.917,537,1411.917" style="stroke:#181818;stroke-width:0.5;"/><polygon fill="#F1F1F1" points="477,938.832,597,938.832,609,950.832,597,962.832,477,962.832,465,950.832,477,938.832" style="stroke:#181818;stroke-width:0.5;"/><text fill="#000000" font-family="sans-serif" font-size="11" lengthAdjust="spacing" textLength="19" x="541" y="973.4668">Yes</text><text fill="#000000" font-family="sans-serif" font-size="11" lengthAdjust="spacing" textLength="120" x="477" y="954.9893">More questions in list?</text><text fill="#000000" font-family="sans-serif" font-size="11" lengthAdjust="spacing" textLength="15" x="450" y="948.5117">No</text><path d="M620.5,1494.3281 L620.5,1502.9834 L600.5,1506.9834 L620.5,1510.9834 L620.5,1519.6387 A0,0 0 0 0 620.5,1519.6387 L831.5,1519.6387 A0,0 0 0 0 831.5,1519.6387 L831.5,1504.3281 L821.5,1494.3281 L620.5,1494.3281 A0,0 0 0 0 620.5,1494.3281 " fill="#FEFFDD" style="stroke:#181818;stroke-width:0.5;"/><path d="M821.5,1494.3281 L821.5,1504.3281 L831.5,1504.3281 L821.5,1494.3281 " fill="#FEFFDD" style="stroke:#181818;stroke-width:0.5;"/><text fill="#000000" font-family="sans-serif" font-size="13" lengthAdjust="spacing" textLength="190" x="626.5" y="1511.8965">Interaction with View/Console</text><rect fill="#F1F1F1" height="34.1328" rx="12.5" ry="12.5" style="stroke:#181818;stroke-width:0.5;" width="127" x="473.5" y="1489.917"/><text fill="#000000" font-family="sans-serif" font-size="12" lengthAdjust="spacing" textLength="107" x="483.5" y="1511.5186">Display Final Score</text><ellipse cx="537" cy="1567.0498" fill="none" rx="11" ry="11" style="stroke:#222222;stroke-width:1.0;"/><ellipse cx="537" cy="1567.0498" fill="#222222" rx="6" ry="6" style="stroke:#222222;stroke-width:1.0;"/><line style="stroke:#181818;stroke-width:1.0;" x1="537" x2="537" y1="162.2422" y2="182.2422"/><polygon fill="#181818" points="533,172.2422,537,182.2422,541,172.2422,537,176.2422" style="stroke:#181818;stroke-width:1.0;"/><line style="stroke:#181818;stroke-width:1.0;" x1="537" x2="537" y1="216.375" y2="236.375"/><polygon fill="#181818" points="533,226.375,537,236.375,541,226.375,537,230.375" style="stroke:#181818;stroke-width:1.0;"/><line style="stroke:#181818;stroke-width:1.0;" x1="537" x2="537" y1="67.4883" y2="113.9766"/><polygon fill="#181818" points="533,103.9766,537,113.9766,541,103.9766,537,107.9766" style="stroke:#181818;stroke-width:1.0;"/><line style="stroke:#181818;stroke-width:1.0;" x1="537" x2="537" y1="284.6406" y2="343.1289"/><polygon fill="#181818" points="533,333.1289,537,343.1289,541,333.1289,537,337.1289" style="stroke:#181818;stroke-width:1.0;"/><line style="stroke:#181818;stroke-width:1.0;" x1="537" x2="537" y1="484.0156" y2="504.0156"/><polygon fill="#181818" points="533,494.0156,537,504.0156,541,494.0156,537,498.0156" style="stroke:#181818;stroke-width:1.0;"/><line style="stroke:#181818;stroke-width:1.0;" x1="537" x2="537" y1="552.2813" y2="587.2813"/><polygon fill="#181818" points="533,577.2813,537,587.2813,541,577.2813,537,581.2813" style="stroke:#181818;stroke-width:1.0;"/><line style="stroke:#181818;stroke-width:1.0;" x1="537" x2="537" y1="635.5469" y2="655.5469"/><polygon fill="#181818" points="533,645.5469,537,655.5469,541,645.5469,537,649.5469" style="stroke:#181818;stroke-width:1.0;"/><line style="stroke:#181818;stroke-width:1.0;" x1="537" x2="537" y1="377.2617" y2="435.75"/><polygon fill="#181818" points="533,425.75,537,435.75,541,425.75,537,429.75" style="stroke:#181818;stroke-width:1.0;"/><line style="stroke:#181818;stroke-width:1.0;" x1="537" x2="537" y1="810.5664" y2="830.5664"/><polygon fill="#181818" points="533,820.5664,537,830.5664,541,820.5664,537,824.5664" style="stroke:#181818;stroke-width:1.0;"/><line style="stroke:#181818;stroke-width:1.0;" x1="537" x2="537" y1="864.6992" y2="884.6992"/><polygon fill="#181818" points="533,874.6992,537,884.6992,541,874.6992,537,878.6992" style="stroke:#181818;stroke-width:1.0;"/><line style="stroke:#181818;stroke-width:1.0;" x1="537" x2="537" y1="1055.5879" y2="1075.5879"/><polygon fill="#181818" points="533,1065.5879,537,1075.5879,541,1065.5879,537,1069.5879" style="stroke:#181818;stroke-width:1.0;"/><line style="stroke:#181818;stroke-width:1.0;" x1="537" x2="537" y1="1123.8535" y2="1143.8535"/><polygon fill="#181818" points="533,1133.8535,537,1143.8535,541,1133.8535,537,1137.8535" style="stroke:#181818;stroke-width:1.0;"/><line style="stroke:#181818;stroke-width:1.0;" x1="537" x2="537" y1="1177.9863" y2="1211.2744"/><polygon fill="#181818" points="533,1201.2744,537,1211.2744,541,1201.2744,537,1205.2744" style="stroke:#181818;stroke-width:1.0;"/><line style="stroke:#181818;stroke-width:1.0;" x1="334" x2="334" y1="1336.7842" y2="1371.7842"/><polygon fill="#181818" points="330,1361.7842,334,1371.7842,338,1361.7842,334,1365.7842" style="stroke:#181818;stroke-width:1.0;"/><line style="stroke:#181818;stroke-width:1.0;" x1="480.5" x2="334" y1="1280.6514" y2="1280.6514"/><line style="stroke:#181818;stroke-width:1.0;" x1="334" x2="334" y1="1280.6514" y2="1302.6514"/><polygon fill="#181818" points="330,1292.6514,334,1302.6514,338,1292.6514,334,1296.6514" style="stroke:#181818;stroke-width:1.0;"/><line style="stroke:#181818;stroke-width:1.0;" x1="593.5" x2="740" y1="1280.6514" y2="1280.6514"/><line style="stroke:#181818;stroke-width:1.0;" x1="740" x2="740" y1="1280.6514" y2="1302.6514"/><polygon fill="#181818" points="736,1292.6514,740,1302.6514,744,1292.6514,740,1296.6514" style="stroke:#181818;stroke-width:1.0;"/><line style="stroke:#181818;stroke-width:1.0;" x1="334" x2="334" y1="1405.917" y2="1423.917"/><line style="stroke:#181818;stroke-width:1.0;" x1="334" x2="525" y1="1423.917" y2="1423.917"/><polygon fill="#181818" points="515,1419.917,525,1423.917,515,1427.917,519,1423.917" style="stroke:#181818;stroke-width:1.0;"/><line style="stroke:#181818;stroke-width:1.0;" x1="740" x2="740" y1="1365.0498" y2="1423.917"/><line style="stroke:#181818;stroke-width:1.0;" x1="740" x2="549" y1="1423.917" y2="1423.917"/><polygon fill="#181818" points="559,1419.917,549,1423.917,559,1427.917,555,1423.917" style="stroke:#181818;stroke-width:1.0;"/><line style="stroke:#181818;stroke-width:1.0;" x1="537" x2="537" y1="1245.4072" y2="1268.6514"/><polygon fill="#181818" points="533,1258.6514,537,1268.6514,541,1258.6514,537,1262.6514" style="stroke:#181818;stroke-width:1.0;"/><line style="stroke:#181818;stroke-width:1.0;" x1="537" x2="537" y1="962.832" y2="1021.4551"/><polygon fill="#181818" points="533,1011.4551,537,1021.4551,541,1011.4551,537,1015.4551" style="stroke:#181818;stroke-width:1.0;"/><line style="stroke:#181818;stroke-width:1.0;" x1="537" x2="537" y1="1435.917" y2="1457.917"/><line style="stroke:#181818;stroke-width:1.0;" x1="537" x2="954" y1="1457.917" y2="1457.917"/><polygon fill="#181818" points="950,1201.9863,954,1191.9863,958,1201.9863,954,1197.9863" style="stroke:#181818;stroke-width:1.0;"/><line style="stroke:#181818;stroke-width:1.0;" x1="954" x2="954" y1="950.832" y2="1457.917"/><line style="stroke:#181818;stroke-width:1.0;" x1="954" x2="609" y1="950.832" y2="950.832"/><polygon fill="#181818" points="619,946.832,609,950.832,619,954.832,615,950.832" style="stroke:#181818;stroke-width:1.0;"/><line style="stroke:#181818;stroke-width:1.0;" x1="465" x2="27" y1="950.832" y2="950.832"/><polygon fill="#181818" points="23,1187.9863,27,1197.9863,31,1187.9863,27,1191.9863" style="stroke:#181818;stroke-width:1.0;"/><line style="stroke:#181818;stroke-width:1.0;" x1="27" x2="27" y1="950.832" y2="1469.917"/><line style="stroke:#181818;stroke-width:1.0;" x1="27" x2="537" y1="1469.917" y2="1469.917"/><line style="stroke:#181818;stroke-width:1.0;" x1="537" x2="537" y1="1469.917" y2="1489.917"/><polygon fill="#181818" points="533,1479.917,537,1489.917,541,1479.917,537,1483.917" style="stroke:#181818;stroke-width:1.0;"/><line style="stroke:#181818;stroke-width:1.0;" x1="537" x2="537" y1="918.832" y2="938.832"/><polygon fill="#181818" points="533,928.832,537,938.832,541,928.832,537,932.832" style="stroke:#181818;stroke-width:1.0;"/><line style="stroke:#181818;stroke-width:1.0;" x1="537" x2="537" y1="717.9453" y2="776.4336"/><polygon fill="#181818" points="533,766.4336,537,776.4336,541,766.4336,537,770.4336" style="stroke:#181818;stroke-width:1.0;"/><line style="stroke:#181818;stroke-width:1.0;" x1="537" x2="537" y1="1524.0498" y2="1556.0498"/><polygon fill="#181818" points="533,1546.0498,537,1556.0498,541,1546.0498,537,1550.0498" style="stroke:#181818;stroke-width:1.0;"/><!--SRC=[dLLHJzim47xFhxZrOMgbgUoPQfeGNHdIs80of6cWo7EkZJVNpknh2qpyzvqT9sqeJ8myj99zttVVtNsNa2ADy54uTmkdbWWTN3YrKWAEn09XekqQ-f-Kf-zdI_IahBc6WwfoLiXoa6MUXACig_XNXKledGXbO2gTggW7VpBWP__GeI1iY9LXb95uPVgLy1waN-KpfT5mmi6eWpZLufOLDOZkvQ4rvApMMm4DPPtfJS8pwNr7umQvaIYq1egmV26CcACRnkBwE-YQl44QorAScfUq3nzkK2u9FIGaB91AMzGPScr5aHU2X4U-kpBdA0eud5u2MHZpySHn0qRRmRzJotq8duf5nQDwHYINjq97C9u4wZYyiP9qtI1ax5-BoUsFdoYf2-LutwBRqND_bP5w21wz3r1Lf8bjjy6ZdWrRHNorXjBgmZyWUzbGvaXvatshwbJREKfKAzoRadNu85yAEJQSK6XrXspJ4FKEtewoUBSksORGFmcd6_tiPyr4xmUWFFI_eH_4uF1ioG_hKh7Tu6BfJ5D1y-mV8O5SEeU6e144NsBVHvt8xJuUI1aADNEe9mGpPnT09KOztGIziV8nVSFUuraj8_WihnCDDqE3rvlJrWQ4DpHuMisnuPU3a57vMb49bmhNUpmrRpNkLfjMzy3uDRf7M3NE_eyqcg6fBccN9SfVkOWv-lNVFoe833xj9732TX1rUuTNYHQaNV1aUOzhIdO0gpIClXrsoDKC-dM1_3BYuSfW4fwFUM2JjePJnrJ1wZ7uLM-q4_AYtaJkhrKHtehHqrrUr9vT_Ta-BUZOo5hIa6qpBNbXayGqlrqlfVZyqQQ_k10qXPgr9_TPEajx6IgeTxWn-qJnLBPBVhvXxyF7orRPNm00]--></g></svg>